<svg width="249" height="187" viewBox="0 0 249 187" fill="none" xmlns="http://www.w3.org/2000/svg">
<g clip-path="url(#clip0)">
<path d="M175.181 141.062C175.181 141.062 179.754 133.66 180.294 130.499C180.673 128.436 181.206 126.407 181.887 124.429" stroke="#535461" stroke-width="2" stroke-miterlimit="10"/>
<path d="M182.436 125.187C182.775 125.187 183.049 124.904 183.049 124.554C183.049 124.205 182.775 123.921 182.436 123.921C182.098 123.921 181.823 124.205 181.823 124.554C181.823 124.904 182.098 125.187 182.436 125.187Z" fill="#FFD037"/>
<path d="M181.334 124.871C181.673 124.871 181.947 124.587 181.947 124.238C181.947 123.888 181.673 123.605 181.334 123.605C180.996 123.605 180.721 123.888 180.721 124.238C180.721 124.587 180.996 124.871 181.334 124.871Z" fill="#FFD037"/>
<path d="M228.361 111.262C228.361 111.262 225.738 117.145 228.361 121.945C230.983 126.745 228.818 140.215 221.838 142.151" stroke="#535461" stroke-miterlimit="10"/>
<path opacity="0.2" d="M236.64 130.674C236.64 130.674 231.335 129.803 230.853 134.711C230.371 139.62 220.653 140.3 220.653 140.3L220.836 140.425C228.857 145.855 236.526 143.888 235.371 136.668C234.932 133.984 234.975 131.288 236.64 130.674Z" fill="#F5F5F5"/>
<path d="M236.64 130.674C236.64 130.674 232.524 131.618 232.86 135.474C233.197 139.329 226.747 143.973 220.653 140.3" stroke="#535461" stroke-miterlimit="10"/>
<path d="M174.201 135.45C174.201 135.45 172.781 130.473 174.466 126.809C175.183 125.277 175.4 123.546 175.083 121.877C174.923 121.085 174.693 120.31 174.397 119.561" stroke="#535461" stroke-width="2" stroke-miterlimit="10"/>
<path d="M171.112 134.966C171.112 134.966 173.707 134.43 174.397 133.717C175.088 133.004 178.204 131.75 178.549 132.645C178.894 133.54 183.218 136.574 180.278 137.11C177.337 137.646 173.359 137.818 172.504 137.466C171.649 137.115 171.112 134.966 171.112 134.966Z" fill="#A8A8A8"/>
<path opacity="0.2" d="M180.287 136.777C177.347 137.313 173.368 137.485 172.513 137.136C171.855 136.862 171.397 135.556 171.217 134.947L171.13 134.966C171.13 134.966 171.649 137.11 172.502 137.466C173.355 137.823 177.344 137.646 180.275 137.11C181.126 136.954 181.368 136.593 181.277 136.132C181.201 136.432 180.911 136.664 180.287 136.777Z" fill="black"/>
<path d="M152.141 150.985C152.141 150.985 160.013 149.359 162.115 147.191C164.216 145.024 173.661 141.227 174.71 143.938C175.76 146.648 188.886 155.863 179.969 157.488C171.052 159.112 158.973 159.657 156.348 158.571C153.724 157.485 152.141 150.985 152.141 150.985Z" fill="#A8A8A8"/>
<path opacity="0.2" d="M179.96 156.482C171.043 158.109 158.964 158.649 156.339 157.566C154.341 156.739 152.953 152.773 152.404 150.929L152.141 150.985C152.141 150.985 153.717 157.488 156.339 158.571C158.962 159.655 171.036 159.114 179.96 157.488C182.534 157.015 183.271 155.918 182.994 154.522C182.774 155.431 181.887 156.132 179.96 156.482Z" fill="black"/>
<path opacity="0.1" d="M20.6826 119.336C24.1876 124.679 23.0696 143.806 23.0696 143.806C23.0696 143.806 5.46435 137.785 1.94787 132.442C1.09244 131.173 0.489625 129.74 0.174374 128.228C-0.140878 126.716 -0.162288 125.155 0.111384 123.634C0.385056 122.113 0.948366 120.664 1.76864 119.37C2.58892 118.076 3.64985 116.963 4.88989 116.095C6.12993 115.228 7.52442 114.623 8.99248 114.316C10.4605 114.01 11.973 114.007 13.442 114.309C14.9111 114.61 16.3076 115.21 17.5505 116.073C18.7934 116.936 19.858 118.045 20.6826 119.336Z" fill="black"/>
<path d="M5.03687 116.229C5.03687 116.229 18.2385 126.752 23.1383 143.82" stroke="#535461" stroke-miterlimit="10"/>
<path d="M26.5998 129.304C26.5998 129.304 28.3877 138.172 23.5017 143.706" stroke="#535461" stroke-miterlimit="10"/>
<path opacity="0.1" d="M220.937 128.986C221.045 129.151 221.131 129.33 221.193 129.519C223.392 132.187 224.563 134.678 222.45 134.739C220.479 134.798 218.106 138.434 217.551 139.353C217.57 139.424 217.593 139.494 217.619 139.563C217.619 139.563 220.388 134.806 222.649 134.739C224.91 134.673 223.415 131.847 220.937 128.986Z" fill="black"/>
<path d="M223.271 131.148C223.271 131.746 223.205 132.23 223.125 132.23C223.045 132.23 222.981 131.758 222.981 131.148C222.981 130.539 223.063 130.832 223.143 130.832C223.223 130.832 223.271 130.551 223.271 131.148Z" fill="#FFD037"/>
<path d="M224.071 131.861C223.564 132.147 223.123 132.319 223.084 132.246C223.045 132.173 223.427 131.885 223.934 131.599C224.442 131.314 224.241 131.521 224.28 131.599C224.318 131.677 224.579 131.576 224.071 131.861Z" fill="#FFD037"/>
<path opacity="0.1" d="M214.302 128.986C214.192 129.15 214.106 129.33 214.045 129.519C211.846 132.187 210.673 134.678 212.788 134.739C214.757 134.798 217.132 138.434 217.685 139.353C217.667 139.424 217.645 139.494 217.619 139.563C217.619 139.563 214.848 134.806 212.589 134.739C210.33 134.673 211.821 131.847 214.302 128.986Z" fill="black"/>
<path d="M211.967 131.148C211.967 131.746 212.031 132.23 212.111 132.23C212.191 132.23 212.255 131.758 212.255 131.148C212.255 130.539 212.175 130.832 212.095 130.832C212.015 130.832 211.967 130.551 211.967 131.148Z" fill="#FFD037"/>
<path d="M211.165 131.861C211.672 132.147 212.116 132.319 212.155 132.246C212.194 132.173 211.812 131.885 211.304 131.599C210.797 131.314 210.996 131.521 210.959 131.599C210.922 131.677 210.657 131.576 211.165 131.861Z" fill="#FFD037"/>
<path d="M212.367 139.341C212.367 139.341 215.879 139.228 216.94 138.451C218.001 137.674 222.343 136.744 222.606 137.991C222.869 139.237 227.883 144.198 223.918 144.231C219.954 144.264 214.706 143.593 213.65 142.93C212.594 142.266 212.367 139.341 212.367 139.341Z" fill="#A8A8A8"/>
<path opacity="0.2" d="M223.985 143.789C220.02 143.822 214.773 143.152 213.716 142.488C212.912 141.983 212.592 140.167 212.484 139.329H212.367C212.367 139.329 212.596 142.252 213.646 142.918C214.695 143.584 219.949 144.252 223.914 144.219C225.057 144.219 225.455 143.789 225.432 143.168C225.272 143.553 224.837 143.789 223.985 143.789Z" fill="black"/>
<path d="M49.5645 146.729C49.5645 146.729 46.3499 135.464 50.1659 127.172C51.7871 123.706 52.2765 119.79 51.5605 116.012C51.2053 114.221 50.6926 112.468 50.0287 110.773" stroke="#535461" stroke-width="2" stroke-miterlimit="10"/>
<path d="M52.4041 105.541C52.4041 106.92 49.9828 110.924 49.9828 110.924C49.9828 110.924 47.5615 106.91 47.5615 105.541C47.5615 104.878 47.8166 104.242 48.2707 103.773C48.7248 103.304 49.3407 103.041 49.9828 103.041C50.625 103.041 51.2409 103.304 51.6949 103.773C52.149 104.242 52.4041 104.878 52.4041 105.541Z" fill="#FC6681"/>
<path d="M56.4053 113.181C55.6782 114.338 51.5398 116.34 51.5398 116.34C51.5398 116.34 51.613 111.618 52.34 110.464C52.5128 110.188 52.7365 109.95 52.9983 109.764C53.2601 109.578 53.5549 109.446 53.8658 109.378C54.1767 109.309 54.4977 109.304 54.8105 109.363C55.1232 109.423 55.4216 109.545 55.6885 109.724C55.9554 109.902 56.1857 110.133 56.3662 110.403C56.5466 110.674 56.6738 110.978 56.7404 111.299C56.8069 111.62 56.8116 111.952 56.7541 112.275C56.6966 112.598 56.5781 112.906 56.4053 113.181Z" fill="#FC6681"/>
<path d="M56.2294 126.247C55.0359 126.868 50.4836 126.438 50.4836 126.438C50.4836 126.438 52.8569 122.406 54.0504 121.782C54.3351 121.627 54.6469 121.531 54.9677 121.502C55.2885 121.472 55.6118 121.509 55.9187 121.61C56.2256 121.711 56.5099 121.874 56.755 122.09C57 122.305 57.2009 122.57 57.3458 122.867C57.4908 123.164 57.5769 123.488 57.5991 123.819C57.6214 124.151 57.5793 124.484 57.4753 124.799C57.3713 125.114 57.2076 125.404 56.9936 125.653C56.7797 125.901 56.5199 126.103 56.2294 126.247Z" fill="#FC6681"/>
<path d="M53.9405 136.104C52.8659 136.923 48.3091 137.285 48.3091 137.285C48.3091 137.285 49.9873 132.896 51.0528 132.074C51.3064 131.859 51.5997 131.7 51.9148 131.606C52.2298 131.512 52.5601 131.485 52.8856 131.526C53.2111 131.568 53.5251 131.677 53.8083 131.848C54.0916 132.019 54.3383 132.247 54.5335 132.52C54.7287 132.792 54.8683 133.102 54.9439 133.432C55.0195 133.761 55.0294 134.103 54.9731 134.437C54.9168 134.771 54.7954 135.089 54.6163 135.373C54.4372 135.656 54.2042 135.9 53.9313 136.088L53.9405 136.104Z" fill="#FC6681"/>
<path d="M46.4573 116.607C47.4153 117.57 51.8829 118.567 51.8829 118.567C51.8829 118.567 50.7877 113.984 49.8251 113.023C49.3649 112.561 48.7458 112.307 48.1042 112.317C47.4625 112.326 46.8508 112.599 46.4035 113.074C45.9563 113.549 45.7103 114.188 45.7195 114.851C45.7287 115.514 45.9925 116.145 46.4527 116.607H46.4573Z" fill="#FC6681"/>
<path d="M43.9216 128.169C45.1151 128.792 49.6673 128.362 49.6673 128.362C49.6673 128.362 47.2941 124.327 46.1006 123.707C45.5275 123.408 44.8632 123.357 44.2537 123.565C43.6441 123.772 43.1394 124.221 42.8504 124.813C42.5615 125.404 42.512 126.09 42.7129 126.72C42.9138 127.349 43.3486 127.87 43.9216 128.169Z" fill="#FC6681"/>
<path d="M42.9523 139.757C44.0178 140.578 48.5905 140.956 48.5905 140.956C48.5905 140.956 46.9123 136.565 45.8469 135.745C45.5932 135.531 45.2999 135.371 44.9849 135.277C44.6698 135.183 44.3395 135.156 44.014 135.198C43.6885 135.239 43.3746 135.349 43.0913 135.52C42.8081 135.69 42.5613 135.919 42.3661 136.191C42.1709 136.463 42.0313 136.773 41.9557 137.103C41.8802 137.433 41.8703 137.775 41.9266 138.108C41.9829 138.442 42.1043 138.76 42.2833 139.044C42.4624 139.328 42.6954 139.571 42.9683 139.759L42.9523 139.757Z" fill="#FC6681"/>
<path d="M41.9712 146.018C41.9712 146.018 45.8832 145.215 46.9258 144.146C47.9684 143.076 52.6647 141.204 53.186 142.543C53.7073 143.881 60.2281 148.424 55.7947 149.226C51.3614 150.029 45.3619 150.296 44.0564 149.762C42.7509 149.229 41.9712 146.018 41.9712 146.018Z" fill="#A8A8A8"/>
<path opacity="0.2" d="M55.7948 148.731C51.3591 149.531 45.3619 149.8 44.0564 149.264C43.0641 148.858 42.3736 146.903 42.1015 145.99L41.9712 146.018C41.9712 146.018 42.7531 149.227 44.0564 149.762C45.3596 150.298 51.3591 150.029 55.7948 149.227C57.0728 148.99 57.4387 148.452 57.3015 147.763C57.1917 148.211 56.7459 148.558 55.7948 148.731Z" fill="black"/>
<path d="M71.171 157.785C71.171 157.785 76.4092 159.27 78.9334 157.296C81.4575 155.323 82.5504 155.958 82.5504 155.958C82.5504 155.958 88.5659 155.613 89.0598 154.147C89.5537 152.681 86.7528 147.345 86.7528 147.342C86.5516 146.882 86.2635 146.268 86.1309 146.268L86.1584 144.018L87.0295 134.607C89.0415 129.283 87.0661 122.401 87.0661 122.401L86.7071 120.694C86.5035 119.737 86.6238 118.737 87.0478 117.861L90.706 110.27C90.9007 109.77 91.13 109.285 91.3919 108.818C91.6206 108.384 91.9247 107.848 92.3065 107.206C92.4185 107.024 92.5351 106.83 92.6632 106.629C93.1067 105.921 93.644 105.114 94.2911 104.186C95.9099 101.872 96.7604 98.9917 97.1994 96.8432L97.3937 97.5113H97.4257H97.4783L97.5515 97.5255H97.5652L97.6589 97.5396H97.6772H97.6955L98.8182 112.305C98.889 118.064 100.935 121.251 100.935 121.251L100.652 133.963C101.038 137.032 100.195 141.109 99.8082 142.736L98.921 144.8C98.5731 144.98 98.2728 145.245 98.0458 145.571C97.8188 145.898 97.6719 146.276 97.6178 146.674C97.4417 148.197 95.8893 151.479 95.8893 151.479C95.3223 152.289 94.0167 154.414 94.0167 154.414C94.0167 154.414 93.3811 156.442 93.7698 157.202C94.1585 157.962 97.332 157.891 97.332 157.891C100.967 158.722 103.754 156.694 103.578 155.318C103.402 153.941 104.141 153.58 104.141 153.58C105.588 153.108 105.446 152.095 105.446 152.095C105.758 150.009 105.373 147.876 104.354 146.046L104.125 146.594C104.062 145.499 104.21 144.402 104.562 143.367C104.516 143.4 104.472 143.433 104.427 143.461L104.386 143.489H104.372C104.6 141.414 106.713 137.566 106.713 137.566C110.6 130.539 109.182 121.013 109.182 121.013L108.588 118.054L108.554 116.935C108.468 114.263 108.66 111.589 109.128 108.96C109.336 107.796 109.55 106.389 109.717 104.835C110.065 101.558 111.19 98.1771 111.707 96.7464L111.862 96.718H111.883L112.523 96.6023H112.564C112.564 96.6023 112.687 95.9106 112.793 94.7324C112.854 93.9816 112.905 93.0302 112.905 91.937C112.922 88.634 112.434 85.3488 111.46 82.2027L111.574 82.0279C111.574 82.0279 111.853 81.6407 112.358 80.9679C113.291 79.7472 114.738 77.8986 116.526 75.7949C119.727 72.0291 118.783 68.2138 118.783 68.2138C118.783 68.2138 116.478 59.4781 115.443 54.2084C114.855 51.2146 113.748 49.1747 112.902 47.9706C113.094 47.1415 113.201 46.2941 113.222 45.442C113.293 43.8838 113.238 42.2594 112.562 40.8617C111.885 39.464 110.438 38.3543 108.929 38.5432C108.714 38.5963 108.491 38.5963 108.277 38.5432C108.101 38.4606 107.952 38.3258 107.849 38.156C106.965 36.8999 106.907 35.2095 107.182 33.6843C107.456 32.1591 108.023 30.7 108.275 29.1701C108.526 27.6401 108.414 25.9426 107.47 24.7314C106.363 23.3148 104.431 22.9087 102.991 21.8415C101.98 21.0907 101.221 20.0118 100.156 19.3483C99.0902 18.6849 98.0979 18.9352 96.9342 19.1878C94.9862 19.6104 93.1365 19.804 91.2959 20.6705C89.4307 21.5415 87.7578 22.7973 86.3802 24.3607C85.8921 24.8659 85.5181 25.4762 85.285 26.148C84.8277 27.711 85.7217 29.3778 85.5342 30.9975C85.4016 32.1449 84.7454 33.146 84.2241 34.1706C83.7028 35.1953 83.3095 36.4136 83.7165 37.4902C84.3567 39.1641 86.4602 39.5206 87.9738 40.4131C88.1777 40.5149 88.352 40.6704 88.4791 40.864C88.854 41.5417 88.0858 42.2452 87.6034 42.8473C87.3265 43.1979 87.1302 43.6088 87.0295 44.049C86.3996 44.3169 85.8431 44.7402 85.4086 45.282C84.9741 45.8237 84.6749 46.4672 84.5373 47.1561C84.0206 49.5407 84.814 52.551 85.5136 54.5389C84.75 58.9705 85.7422 60.7176 86.4739 61.3858C86.8424 61.71 87.1449 62.1065 87.3639 62.5523C87.5829 62.9981 87.714 63.4844 87.7497 63.9829V64.0655C87.7977 64.873 87.88 65.6733 87.9898 66.4737C87.9646 66.2872 87.9395 66.0889 87.9258 66.0015C87.3267 67.1466 86.1881 70.0672 85.5456 74.9733C85.4119 76.027 85.2179 77.0716 84.9649 78.1016C84.5062 79.9257 84.3417 81.8154 84.4779 83.6948L84.5945 85.2885C84.4817 85.2939 84.3709 85.2561 84.2835 85.1822L85.0883 86.7051V89.2502C85.0867 90.4078 84.8798 91.5553 84.4779 92.6359C84.4207 92.7941 84.3567 92.9499 84.2904 93.1081C84.0841 93.5401 83.9911 94.0204 84.0206 94.5011C82.2852 97.2327 78.3137 112.586 78.3137 112.586C76.16 117.62 78.4898 120.88 78.4898 120.88C78.4898 120.88 79.6193 134.898 79.8296 135.62C80.04 136.343 80.4995 144.892 80.4995 144.892C80.4995 145.128 80.4995 145.35 80.4995 145.572C80.3745 145.516 80.2431 145.476 80.1086 145.454C78.22 145.345 77.7079 148.424 77.7079 148.424L73.8461 152.244C73.8461 152.244 72.081 151.937 69.4883 153.946C66.8955 155.955 71.171 157.785 71.171 157.785ZM109.729 76.7842V76.7417L109.624 76.8054L109.58 76.8314H109.56L107.763 70.3623C107.285 68.6235 107.239 66.7883 107.63 65.0264L109.002 58.8029V57.306L113.376 69.3471C113.666 70.9596 111.069 74.8907 109.729 76.7842Z" fill="url(#paint0_linear)"/>
<path d="M111.643 96.3568C111.643 96.3568 109.875 100.791 109.425 105.048C109.262 106.58 109.052 107.971 108.846 109.12C108.387 111.718 108.199 114.358 108.284 116.997L108.316 118.104L108.906 121.036C108.906 121.036 110.291 130.442 106.482 137.381C106.482 137.381 104.23 141.53 104.161 143.499L102.636 144.106L99.5543 143.211C99.5543 143.211 101.043 137.703 100.558 133.84L100.835 121.287C100.835 121.287 98.8272 118.139 98.7564 112.452L97.5789 96.8691L111.643 96.3568Z" fill="#FDC2CC"/>
<path d="M97.5788 94.1398C97.5788 94.1398 97.1992 100.219 94.2886 104.403C91.378 108.587 90.7584 110.412 90.7584 110.412L87.1711 117.908C86.7558 118.775 86.6373 119.762 86.835 120.708L87.1871 122.394C87.1871 122.394 89.1282 129.191 87.1528 134.449L86.2177 144.601H80.7463C80.7463 144.601 80.289 136.161 80.0878 135.445C79.8866 134.73 78.7709 120.887 78.7709 120.887C78.7709 120.887 76.4845 117.669 78.5971 112.697C78.5971 112.697 83.3779 94.0973 84.6583 94.4208C85.9387 94.7442 97.5788 94.1398 97.5788 94.1398Z" fill="#FDC2CC"/>
<g opacity="0.1">
<path opacity="0.1" d="M86.634 122.394L86.2819 120.708C86.0831 119.762 86.2016 118.775 86.618 117.908L90.2031 110.412C90.2031 110.412 90.825 108.589 93.7355 104.403C96.5318 100.389 96.9914 94.6097 97.0234 94.1658L97.579 94.1398C97.579 94.1398 97.1994 100.219 94.2888 104.403C91.3783 108.587 90.7586 110.412 90.7586 110.412L87.1713 117.908C86.756 118.775 86.6375 119.762 86.8352 120.708L87.1873 122.394C87.1873 122.394 89.1284 129.191 87.153 134.449L86.2179 144.601H85.6646L86.5997 134.449C88.5728 129.191 86.634 122.394 86.634 122.394Z" fill="black"/>
</g>
<path opacity="0.1" d="M103.606 143.499C103.674 141.53 105.926 137.381 105.926 137.381C109.738 130.442 108.352 121.036 108.352 121.036L107.762 118.104L107.728 116.997C107.645 114.358 107.834 111.718 108.293 109.12C108.496 107.971 108.709 106.58 108.871 105.048C109.303 100.949 110.957 96.6873 111.08 96.3757L111.642 96.3568C111.642 96.3568 109.875 100.791 109.425 105.048C109.262 106.58 109.052 107.971 108.846 109.12C108.387 111.718 108.199 114.358 108.284 116.997L108.316 118.104L108.906 121.036C108.906 121.036 110.291 130.442 106.482 137.381C106.482 137.381 104.23 141.53 104.161 143.499L102.636 144.106L102.321 144.025L103.606 143.499Z" fill="black"/>
<path d="M101.841 143.426C102.255 143.598 102.706 143.658 103.15 143.602C103.593 143.546 104.016 143.375 104.378 143.104C103.874 144.626 103.802 146.265 104.173 147.826C104.795 150.4 98.3516 145.751 98.3516 145.751L99.7394 142.505C99.7394 142.505 100.247 143.534 101.841 143.426Z" fill="#D39999"/>
<path opacity="0.1" d="M102.321 143.57C102.675 143.644 103.04 143.64 103.393 143.559C103.745 143.477 104.077 143.32 104.367 143.097C103.862 144.619 103.791 146.257 104.161 147.819C104.783 150.393 98.3401 145.744 98.3401 145.744L99.7279 142.498C99.7279 142.498 100.128 143.289 101.301 143.411C101.635 143.454 101.982 143.503 102.321 143.57Z" fill="black"/>
<path d="M87.2239 83.2509H89.915V67.4795L87.8961 67.1041L87.2239 83.2509Z" fill="#FDC2CC"/>
<path opacity="0.05" d="M87.2239 83.2509H89.915V67.4795L87.8961 67.1041L87.2239 83.2509Z" fill="black"/>
<path d="M100.316 144.641C100.316 144.641 102.012 144.535 102.776 146.108L103.711 146.861L104.168 145.751C105.169 147.56 105.547 149.665 105.241 151.724C105.241 151.724 105.38 152.725 103.96 153.191C103.96 153.191 103.233 153.549 103.405 154.907C103.576 156.265 100.842 158.269 97.2747 157.447C97.2747 157.447 94.1561 157.518 93.7765 156.768C93.397 156.017 94.0189 154.012 94.0189 154.012C94.0189 154.012 95.2993 151.916 95.8892 151.139C95.8892 151.139 97.4119 147.897 97.5857 146.396C97.7594 144.894 99.4148 143.82 100.316 144.641Z" fill="#7E5659"/>
<path d="M86.2702 145.966L86.2976 143.744C86.2976 143.744 83.1995 144.66 80.6914 143.624C80.6914 143.624 80.9017 145.857 80.5542 146.162C80.2066 146.467 81.7157 149.345 81.7157 149.345L83.4008 151.17L86.2976 150.079L87.0841 147.522C87.0841 147.522 86.4782 145.966 86.2702 145.966Z" fill="#D39999"/>
<path opacity="0.1" d="M86.2702 145.966L86.2976 143.744C86.2976 143.744 83.1995 144.66 80.6914 143.624C80.6914 143.624 80.9017 145.857 80.5542 146.162C80.2066 146.467 81.7157 149.345 81.7157 149.345L83.4008 151.17L86.2976 150.079L87.0841 147.522C87.0841 147.522 86.4782 145.966 86.2702 145.966Z" fill="black"/>
<path d="M80.3712 145.161C80.3712 145.161 82.0174 145.357 81.8094 147.522C81.6013 149.687 81.8962 147.522 81.8962 147.522C81.8962 147.522 83.6453 148.254 84.2672 149.274C84.8891 150.294 86.0163 148.362 86.0964 147.808C86.1764 147.253 86.8806 147.026 86.8806 147.026C86.8806 147.026 89.6243 152.296 89.1441 153.745C88.664 155.195 82.7536 155.533 82.7536 155.533C82.7536 155.533 81.6813 154.907 79.2029 156.857C76.7244 158.807 71.5846 157.329 71.5846 157.329C71.5846 157.329 67.3936 155.523 69.9384 153.552C72.4831 151.58 74.2162 151.868 74.2162 151.868L78.0094 148.091C78.0094 148.091 78.5101 145.055 80.3712 145.161Z" fill="#7E5659"/>
<path d="M100.034 20.6091C101.081 21.2631 101.827 22.3303 102.819 23.0692C104.232 24.1246 106.127 24.5165 107.216 25.9237C108.13 27.1207 108.252 28.797 108.005 30.308C107.758 31.8191 107.202 33.2593 106.932 34.7656C106.662 36.2719 106.72 37.9411 107.588 39.1807C107.688 39.3486 107.833 39.4819 108.007 39.5631C108.217 39.6153 108.437 39.6153 108.647 39.5631C110.129 39.379 111.549 40.4721 112.214 41.8533C112.879 43.2345 112.932 44.8376 112.863 46.377C112.806 47.6401 112.669 48.9292 112.132 50.0648C111.217 51.9961 109.308 53.1908 107.424 54.1045C106.2 54.6988 104.945 55.2222 103.665 55.6722C102.787 55.9815 101.856 56.2577 100.942 56.0948C99.3758 55.8162 98.2669 54.3477 96.7807 53.7692C95.562 53.297 94.2108 53.467 92.9144 53.5851C91.8101 53.6842 90.5457 53.6842 89.7866 52.8508C88.8103 51.7789 89.2493 50.053 89.7478 48.6766C89.2189 48.6406 88.71 48.4547 88.2769 48.1393C87.8438 47.8239 87.5033 47.3913 87.293 46.889C87.0826 46.3867 87.0105 45.8342 87.0846 45.2923C87.1587 44.7504 87.3761 44.2402 87.7129 43.8176C88.1861 43.2227 88.9384 42.5285 88.5703 41.858C88.4461 41.6674 88.2759 41.5135 88.0764 41.4118C86.5811 40.5311 84.5256 40.1794 83.8969 38.5267C83.4922 37.4619 83.8854 36.2601 84.3953 35.2472C84.9052 34.2344 85.5499 33.2475 85.6803 32.1142C85.8655 30.5135 84.9943 28.8678 85.4356 27.3238C85.6645 26.6617 86.0313 26.0597 86.5102 25.5601C87.8619 24.0183 89.5043 22.7778 91.3368 21.9147C93.1453 21.06 94.9607 20.8688 96.8722 20.4509C98.0016 20.2006 98.9505 19.9338 100.034 20.6091Z" fill="#865A61"/>
<path d="M89.9125 44.4457C89.9125 44.4457 85.5249 44.2096 84.695 48.0698C83.865 51.93 86.4944 57.4642 86.4944 57.4642L89.9125 44.4457Z" fill="#FDC2CC"/>
<path opacity="0.05" d="M89.9125 44.4457C89.9125 44.4457 85.5249 44.2096 84.695 48.0698C83.865 51.93 86.4944 57.4642 86.4944 57.4642L89.9125 44.4457Z" fill="black"/>
<path d="M87.1184 55.939L88.7806 57.2989L96.5406 57.6554L101.381 54.2225L106.308 45.4869C103.295 44.6936 102.078 42.5474 101.626 40.5288C101.336 39.17 101.303 37.7665 101.527 36.3947C101.527 36.3947 93.6301 32.1732 94.5995 38.7557C94.7344 39.5643 94.7591 40.3884 94.6727 41.204C94.2154 45.0619 90.5869 44.3371 90.5869 44.3371L89.1967 46.554L87.5963 51.9843L87.1184 55.939Z" fill="#FDC2CC"/>
<path opacity="0.1" d="M94.5996 38.7698C94.7345 39.5784 94.7592 40.4025 94.6728 41.2182C95.7886 41.7458 97.0191 41.9613 98.241 41.8432C99.4628 41.7251 100.633 41.2775 101.635 40.5453C101.346 39.1865 101.312 37.783 101.537 36.4112C101.537 36.4112 93.6325 32.1897 94.5996 38.7698Z" fill="black"/>
<path d="M97.5857 41.5842C101.45 41.5842 104.582 38.3496 104.582 34.3595C104.582 30.3695 101.45 27.1349 97.5857 27.1349C93.7217 27.1349 90.5894 30.3695 90.5894 34.3595C90.5894 38.3496 93.7217 41.5842 97.5857 41.5842Z" fill="#FDC2CC"/>
<path d="M92.6379 54.5602C92.8048 54.572 92.974 54.5885 93.1409 54.605C94.0555 54.6995 97.8898 54.912 100.073 52.2204C102.515 49.2078 105.766 45.4869 105.899 45.3358L109.207 46.3699C109.207 46.3699 106.59 45.4066 104.845 50.4355C104.466 51.4923 104.428 52.6475 104.737 53.7284C105.046 54.8094 105.685 55.758 106.56 56.4324C107.203 56.9116 107.942 57.2344 108.723 57.3768C108.724 57.3786 108.724 57.3807 108.724 57.3827C108.724 57.3848 108.724 57.3868 108.723 57.3886V59.5962L107.369 65.7347C106.985 67.4748 107.029 69.2865 107.497 71.0045L109.555 78.536C109.555 78.536 109.555 78.536 109.555 78.5478C109.244 78.7698 96.4379 87.7557 87.8845 81.5534C87.9165 81.2842 88.9728 72.4447 88.2412 68.1193C88.0526 67.0133 87.9243 65.8971 87.8571 64.7762C87.8571 64.7479 87.8571 64.7219 87.8571 64.6935C87.7809 63.7044 87.3308 62.7859 86.6041 62.1366C85.8336 61.4283 84.7887 59.5395 85.8199 54.5248C86.0799 53.2856 86.463 52.0775 86.9631 50.9195L89.8302 44.2261C89.832 44.2251 89.8339 44.2245 89.836 44.2245C89.838 44.2245 89.8399 44.2251 89.8417 44.2261L92.4847 44.2804V44.297C92.2561 44.5921 89.19 48.5467 88.8585 51.0943C88.5316 53.519 88.1314 54.2627 92.6379 54.5602Z" fill="#D39999"/>
<path d="M111.434 47.5457C111.434 47.5457 114.02 49.8358 115.035 55.0324C116.051 60.2289 118.326 68.8631 118.326 68.8631C118.326 68.8631 119.24 72.6406 116.108 76.3498C112.975 80.0589 110.89 82.9794 110.89 82.9794L108.832 86.1172C108.481 86.6527 107.953 87.0379 107.346 87.2009C106.404 87.4582 104.962 87.6424 103.709 86.9341C103.252 86.6725 102.904 86.2458 102.734 85.736C102.563 85.2261 102.58 84.6691 102.783 84.1717L103.229 83.0739C103.229 83.0739 98.9804 85.841 98.6123 84.3134C98.2442 82.7858 103.553 81.263 103.553 81.263C103.553 81.263 107.941 80.5004 108.812 78.3543C108.812 78.3543 113.522 72.1071 113.156 69.9609L108.595 57.3768C108.595 57.3768 102.934 56.6024 104.875 50.0034C106.816 43.4045 111.434 47.5457 111.434 47.5457Z" fill="#FDC2CC"/>
<path d="M84.2331 95.0441C84.2331 95.0441 94.6248 97.1902 97.0712 96.9046L97.3342 97.8112C97.3342 97.8112 101.28 98.7225 110.195 97.2611C110.777 97.1666 111.383 97.0604 112.011 96.9423L112.219 96.9046C112.219 96.9046 112.342 96.2222 112.447 95.0583C112.662 92.4187 112.738 87.3071 110.938 82.0728L109.436 77.3036C109.436 77.3036 100.169 83.0408 94.0326 82.5119C93.4862 82.4647 92.9397 82.4199 92.3933 82.3986C91.1335 82.3514 89.1923 82.3986 87.9165 81.3503L85.2551 81.8225V89.6516C85.2532 90.7945 85.0494 91.9274 84.6538 92.9948C84.5967 93.1506 84.5372 93.304 84.4709 93.467C84.2446 93.9722 84.1005 94.5388 84.2331 95.0441Z" fill="#7E5659"/>
<path opacity="0.1" d="M97.3342 95.3888V97.8206C97.3342 97.8206 101.875 98.8689 112.219 96.914C112.219 96.914 112.342 96.2317 112.447 95.0677C109.262 95.5848 100.51 96.8502 97.3342 95.3888Z" fill="black"/>
<path opacity="0.1" d="M84.2331 95.0441C84.2331 95.0441 94.6248 97.1902 97.0712 96.9046L97.3341 97.8112V95.3888C96.1521 95.894 87.7016 93.7928 84.6424 93.0042C84.5852 93.16 84.5258 93.3135 84.4595 93.4764C84.2445 93.9722 84.1005 94.5388 84.2331 95.0441Z" fill="black"/>
<path d="M109.425 92.3195L110.195 97.254C110.777 97.1595 111.382 97.0533 112.01 96.9352C111.782 95.4927 111.245 92.2133 111.389 91.6513L110.419 90.7943L109.425 92.3195Z" fill="#7E5659"/>
<path opacity="0.1" d="M109.425 92.3195L110.195 97.254C110.777 97.1595 111.382 97.0533 112.01 96.9352C111.782 95.4927 111.245 92.2133 111.389 91.6513L110.419 90.7943L109.425 92.3195Z" fill="black"/>
<g opacity="0.05">
<path opacity="0.05" d="M93.4656 82.5119C92.9191 82.4647 92.375 82.4198 91.8262 82.3986C90.603 82.3537 88.7328 82.3986 87.4592 81.4306L87.9051 81.3503C89.1786 82.3962 91.122 82.3514 92.3818 82.3986C92.9283 82.4198 93.4747 82.4647 94.0212 82.5119C94.1995 82.5284 94.3824 82.5379 94.5676 82.5426C94.2 82.5527 93.8321 82.5424 93.4656 82.5119Z" fill="black"/>
<path opacity="0.05" d="M109.637 97.2611C110.221 97.1666 110.826 97.0604 111.453 96.9423L111.661 96.9045C111.661 96.9045 111.782 96.2222 111.889 95.0583C112.104 92.4187 112.18 87.3071 110.378 82.0728L108.965 77.5869C109.267 77.4122 109.422 77.3083 109.422 77.3083L110.924 82.0775C112.724 87.3118 112.648 92.4234 112.433 95.063C112.34 96.2269 112.205 96.9093 112.205 96.9093L111.997 96.947C111.37 97.0651 110.765 97.1713 110.181 97.2658C106.018 97.9481 102.938 98.1134 100.837 98.0945C103.786 98.046 106.728 97.7674 109.637 97.2611Z" fill="black"/>
<path opacity="0.05" d="M96.5156 96.9045V96.9305H96.2161C96.3327 96.921 96.4287 96.914 96.5156 96.9045Z" fill="black"/>
</g>
<path d="M110.719 93.2545C110.935 93.2545 111.11 92.8813 111.11 92.421C111.11 91.9607 110.935 91.5876 110.719 91.5876C110.503 91.5876 110.328 91.9607 110.328 92.421C110.328 92.8813 110.503 93.2545 110.719 93.2545Z" fill="#D39999"/>
<path d="M85.6919 75.5423C86.3229 70.6881 87.441 67.803 88.0286 66.6744C88.0537 66.8302 88.1132 67.3284 88.1383 67.4842C88.2595 68.1925 88.1543 69.0873 88.1909 69.9892L87.6033 80.9867L88.3898 84.4196C89.1283 87.1371 86.3915 84.991 86.3915 84.991C85.8245 86.2801 84.7911 86.136 84.7911 86.136L84.6493 84.167C84.5146 82.3108 84.676 80.4444 85.1272 78.6423C85.3742 77.6213 85.5627 76.5862 85.6919 75.5423Z" fill="#FDC2CC"/>
<path opacity="0.05" d="M85.6919 75.5423C86.3229 70.6881 87.441 67.803 88.0286 66.6744C88.0537 66.8302 88.1132 67.3284 88.1383 67.4842C88.2595 68.1925 88.1543 69.0873 88.1909 69.9892L87.6033 80.9867L88.3898 84.4196C89.1283 87.1371 86.3915 84.991 86.3915 84.991C85.8245 86.2801 84.7911 86.136 84.7911 86.136L84.6493 84.167C84.5146 82.3108 84.676 80.4444 85.1272 78.6423C85.3742 77.6213 85.5627 76.5862 85.6919 75.5423Z" fill="black"/>
<path d="M112.011 81.4589C111.512 82.1224 111.24 82.5049 111.24 82.5049L109.182 85.6426C108.832 86.178 108.304 86.5632 107.699 86.7263C106.757 86.9837 105.311 87.1678 104.061 86.4595C103.603 86.1987 103.255 85.772 103.084 85.2619C102.913 84.7518 102.931 84.1944 103.135 83.6972L103.592 82.5993C103.592 82.5993 99.344 85.3664 98.9736 83.8412C98.6032 82.316 103.915 80.7884 103.915 80.7884C103.915 80.7884 108.302 80.0258 109.173 77.8797C109.173 77.8797 109.557 77.3697 110.088 76.5929" fill="#FDC2CC"/>
<path d="M109.425 86.724C109.425 86.724 104.394 86.2211 102.81 83.2533L102.092 85.6946C102.092 85.6946 107.351 89.4533 108.569 88.9669L109.425 86.724Z" fill="#7E5659"/>
<path opacity="0.1" d="M109.425 86.724C109.425 86.724 104.394 86.2211 102.81 83.2533L102.092 85.6946C102.092 85.6946 107.351 89.4533 108.569 88.9669L109.425 86.724Z" fill="black"/>
<path d="M86.5561 85.3404C86.5561 85.3404 84.7979 85.9826 84.4526 85.6261L85.2437 87.1277L86.7367 85.9472L86.5561 85.3404Z" fill="#7E5659"/>
<path opacity="0.1" d="M86.5561 85.3404C86.5561 85.3404 84.7979 85.9826 84.4526 85.6261L85.2437 87.1277L86.7367 85.9472L86.5561 85.3404Z" fill="black"/>
<path opacity="0.1" d="M97.3341 95.3793V92.2416L96.6116 95.4549L97.3341 95.3793Z" fill="black"/>
<path opacity="0.1" d="M104.459 30.5465C104.036 31.1604 103.299 31.4744 102.575 31.5712C101.85 31.668 101.116 31.5854 100.384 31.5712C99.241 31.5499 98.0201 31.7317 97.0804 32.4282C96.4813 32.8721 96.0332 33.493 95.5645 34.0809C94.1469 35.8706 92.1783 37.5421 89.9468 37.3556C89.7523 37.3558 89.5598 37.3155 89.3807 37.2372C89.2015 37.159 89.0395 37.0442 88.9042 36.9C88.7211 36.6097 88.6278 36.2688 88.6367 35.9225C88.5409 34.4482 88.5861 32.9678 88.7716 31.5027C88.8614 30.5962 89.0802 29.7084 89.421 28.8679C89.8183 28.024 90.3423 27.2503 90.9734 26.5753C91.7368 25.661 92.6568 24.8999 93.6874 24.33C94.7323 23.7941 95.9555 23.5627 97.0804 23.8791C98.4156 24.2545 99.4582 25.3334 100.739 25.8906C102.19 26.5305 106.057 28.2186 104.459 30.5465Z" fill="black"/>
<path d="M104.459 30.2585C104.036 30.8747 103.299 31.1863 102.575 31.2855C101.85 31.3847 101.116 31.2997 100.384 31.2855C99.241 31.2666 98.0201 31.4484 97.0804 32.1425C96.4813 32.5888 96.0332 33.2097 95.5645 33.7952C94.1469 35.5825 92.1783 37.2565 89.9468 37.0699C89.7523 37.0701 89.5597 37.0298 89.3806 36.9516C89.2015 36.8733 89.0395 36.7586 88.9042 36.6143C88.7207 36.3233 88.6274 35.9815 88.6367 35.6345C88.541 34.161 88.5861 32.6814 88.7716 31.217C88.8613 30.3106 89.0801 29.4227 89.4209 28.5822C89.8183 27.7384 90.3422 26.9647 90.9734 26.2897C91.7367 25.3754 92.6568 24.6142 93.6873 24.0443C94.7322 23.5084 95.9554 23.277 97.0804 23.5934C98.4156 23.9688 99.4582 25.0478 100.739 25.605C102.19 26.2424 106.057 27.9329 104.459 30.2585Z" fill="#865A61"/>
<path d="M87.905 81.3503L87.8867 82.2145L87.6992 81.3881L87.905 81.3503Z" fill="#FDC2CC"/>
<path opacity="0.05" d="M87.905 81.3503L87.8867 82.2145L87.6992 81.3881L87.905 81.3503Z" fill="black"/>
<g opacity="0.05">
<path opacity="0.05" d="M105.588 49.5431C103.647 56.142 109.308 56.9164 109.308 56.9164L113.858 69.5076C114.226 71.6538 109.514 77.9009 109.514 77.9009C109.187 78.7037 108.371 79.3175 107.472 79.759C107.995 79.4319 108.416 78.9556 108.684 78.3873C108.684 78.3873 113.394 72.1401 113.028 69.994L108.48 57.4028C108.48 57.4028 102.819 56.6284 104.76 50.0294C105.41 47.8243 106.361 46.8208 107.333 46.4596C106.665 47.0144 106.05 47.973 105.588 49.5431Z" fill="black"/>
</g>
<g opacity="0.1">
<path opacity="0.1" d="M105.682 55.54C105.947 55.8793 106.255 56.181 106.596 56.4372C107.239 56.9171 107.978 57.24 108.759 57.3816V57.6177C108.051 57.4617 107.383 57.1554 106.795 56.7181C106.363 56.3922 105.987 55.994 105.682 55.54Z" fill="black"/>
<path opacity="0.1" d="M88.0948 64.9792C88.0948 65.0076 88.0948 65.0335 88.0948 65.0619C88.1611 66.1829 88.2893 67.2991 88.479 68.405C89.1649 72.4872 88.2663 80.5925 88.136 81.7139C88.0628 81.6644 87.9897 81.6148 87.9074 81.5628C87.9394 81.2937 88.9957 72.4541 88.264 68.1288C88.0756 67.0227 87.9473 65.9066 87.8799 64.7856C87.8799 64.7573 87.8799 64.729 87.8799 64.703C87.8349 64.0535 87.6225 63.4283 87.2649 62.8921C87.745 63.4818 88.0351 64.2113 88.0948 64.9792Z" fill="black"/>
<path opacity="0.1" d="M92.3155 44.5496L90.0726 44.5047C90.0708 44.5037 90.0689 44.5031 90.0669 44.5031C90.0648 44.5031 90.0629 44.5037 90.0611 44.5047L87.194 51.1981C86.6936 52.3559 86.3105 53.5641 86.0508 54.8033C85.2163 58.8524 85.7399 60.8687 86.3778 61.8651C85.6598 60.9915 84.919 58.9988 85.8427 54.5177C86.1027 53.2778 86.4858 52.0688 86.9859 50.9101L89.8531 44.219L92.4961 44.271V44.2899C92.4893 44.3253 92.4161 44.415 92.3155 44.5496Z" fill="black"/>
<path opacity="0.1" d="M108.391 46.3297L106.153 45.6214C106.02 45.7749 102.769 49.4935 100.327 52.5061C98.1436 55.1976 94.3161 54.9875 93.3947 54.8931C93.2278 54.8742 93.0586 54.86 92.8917 54.8482C90.3767 54.6829 89.3981 54.376 89.0688 53.722C89.5398 54.1942 90.5733 54.4303 92.6836 54.5625C92.8505 54.5743 93.0197 54.5885 93.1866 54.605C94.1012 54.7018 97.9355 54.9119 100.119 52.2204C102.561 49.2078 105.812 45.4892 105.945 45.3358L109.214 46.3581C108.945 46.2903 108.665 46.2807 108.391 46.3297Z" fill="black"/>
</g>
<path opacity="0.1" d="M81.7846 148.603C81.7846 148.603 78.6202 149.496 78.0098 148.093L81.7846 148.603Z" fill="black"/>
<path opacity="0.1" d="M101.875 147.933C101.875 147.933 98.196 148.91 97.3569 147.397L101.875 147.933Z" fill="black"/>
<path d="M148.552 131.252C148.552 131.252 148.094 129.363 147.69 127.501C147.605 126.334 147.406 124.821 147.322 124.195V124.12C147.322 123.866 147.23 123.621 147.063 123.435C147.292 122.755 148.122 120.167 147.966 119.421C147.788 118.562 147.148 116.465 146.389 115.774C146.149 115.399 145.799 115.113 145.39 114.959C145.029 114.82 144.643 114.765 144.259 114.796C143.875 114.828 143.502 114.947 143.167 115.143L139.308 117.379C137.76 117.143 136.505 116.961 136.505 116.961C136.505 116.961 135.547 116.843 134.349 116.725C133.976 115.809 132.748 113.04 131.475 112.6C130.103 112.128 128.502 112.768 128.152 112.917H128.134L128.088 112.936C125.573 114.137 125.866 119.225 125.962 120.337C125.494 120.95 124.988 121.531 124.449 122.077C123.587 122.861 123.319 124.911 124.122 125.333C124.501 125.534 125.036 125.772 125.512 125.968C123.335 130.749 119.652 140.149 122.951 142.819C127.437 146.448 135.842 147.654 138.727 146.448C138.803 146.462 138.882 146.457 138.956 146.431C138.956 146.431 143.631 145.281 144.724 143.995C145.547 142.938 146.108 141.69 146.359 140.359C147.496 139.325 148.268 137.93 148.554 136.395C149.128 133.424 148.552 131.252 148.552 131.252ZM145.627 120.944L145.739 120.373L145.925 120.479C145.895 120.637 145.863 120.8 145.822 120.968L145.648 122.068L145.627 120.944ZM144.747 116.189C144.946 116.326 146.265 117.339 146.002 119.924C145.99 119.824 145.965 119.726 145.929 119.631C145.872 119.261 145.614 118.758 144.722 118.451C143.956 118.223 143.177 118.044 142.39 117.915C143.064 117.192 143.863 116.606 144.747 116.189ZM131.635 116.458C130.624 116.378 129.828 116.345 129.719 116.425H129.703C129.573 116.413 129.442 116.43 129.319 116.475C128.925 116.571 128.556 116.749 128.233 116.999C128.69 114.357 130.025 114.135 130.315 114.119C130.892 114.807 131.34 115.6 131.635 116.458ZM146.162 137.414C146.023 135.257 145.895 131.885 145.826 129.921L145.943 129.902C146.074 129.884 146.204 129.857 146.332 129.822C146.46 131.092 146.688 132.6 147.084 133.58C147.591 134.846 146.798 136.437 146.162 137.414Z" fill="url(#paint1_linear)"/>
<path d="M145.305 119.768L142.699 118.933L139.889 119.979L139.688 121.801L141.075 122.729L143.277 122.654L145.218 121.711L145.55 119.979L145.305 119.768Z" fill="#CD939C"/>
<path opacity="0.2" d="M145.305 119.768L142.699 118.933L139.889 119.979L139.688 121.801L141.075 122.729L143.277 122.654L145.218 121.711L145.55 119.979L145.305 119.768Z" fill="black"/>
<path d="M126.234 120.666C126.234 120.666 125.523 114.362 128.342 113.087C128.342 113.087 129.849 113.165 130.505 114.281C130.505 114.281 128.447 114.163 128.281 118.588L126.234 120.666Z" fill="#F6C6CD"/>
<path opacity="0.1" d="M126.234 120.666C126.234 120.666 125.523 114.362 128.342 113.087C128.342 113.087 129.849 113.165 130.505 114.281C130.505 114.281 128.447 114.163 128.281 118.588L126.234 120.666Z" fill="black"/>
<path d="M127.755 118.408C127.755 118.408 125.583 121.4 124.741 122.186C123.9 122.972 123.641 124.998 124.423 125.416C125.205 125.834 126.71 126.433 126.71 126.433L127.755 118.408Z" fill="#CD939C"/>
<path opacity="0.05" d="M127.755 118.408C127.755 118.408 125.583 121.4 124.741 122.186C123.9 122.972 123.641 124.998 124.423 125.416C125.205 125.834 126.71 126.433 126.71 126.433L127.755 118.408Z" fill="black"/>
<path d="M134.486 117.152C134.486 117.152 133.068 113.295 131.578 112.773C130.087 112.251 128.281 113.115 128.281 113.115C128.281 113.115 130.475 112.879 131.822 116.853L134.486 117.152Z" fill="#F6C6CD"/>
<path d="M146.688 123.688C146.688 123.688 147.793 120.396 147.619 119.544C147.445 118.692 146.823 116.614 146.085 115.927C145.346 115.24 144.464 116.314 144.464 116.314C144.464 116.314 146.361 117.495 145.536 121.069L145.289 122.656L146.688 123.688Z" fill="#F6C6CD"/>
<path opacity="0.1" d="M146.688 123.688C146.688 123.688 147.793 120.396 147.619 119.544C147.445 118.692 146.823 116.614 146.085 115.927C145.346 115.24 144.464 116.314 144.464 116.314C144.464 116.314 146.361 117.495 145.536 121.069L145.289 122.656L146.688 123.688Z" fill="black"/>
<path d="M138.629 117.856L142.95 115.304C143.274 115.109 143.637 114.991 144.011 114.96C144.386 114.928 144.762 114.984 145.113 115.122C145.512 115.275 145.853 115.557 146.085 115.927C146.085 115.927 143.999 115.807 141.683 118.619L138.629 117.856Z" fill="#F6C6CD"/>
<path d="M145.872 127.56C145.872 127.56 145.989 131.625 146.761 133.58C147.534 135.535 145.216 138.286 145.216 138.286L145.641 140.647C145.641 140.647 147.63 139.332 148.19 136.38C148.751 133.429 148.19 131.278 148.19 131.278C148.19 131.278 146.59 124.649 146.819 123.94C147.047 123.232 145.872 127.56 145.872 127.56Z" fill="#F6C6CD"/>
<path opacity="0.1" d="M145.872 127.56C145.872 127.56 145.989 131.625 146.761 133.58C147.534 135.535 145.216 138.286 145.216 138.286L145.641 140.647C145.641 140.647 147.63 139.332 148.19 136.38C148.751 133.429 148.19 131.278 148.19 131.278C148.19 131.278 146.59 124.649 146.819 123.94C147.047 123.232 145.872 127.56 145.872 127.56Z" fill="black"/>
<path d="M145.332 120.415C145.332 120.415 145.68 122.488 141.587 121.572L138.844 146.315C138.844 146.315 143.391 145.175 144.455 143.9C145.518 142.625 146.306 140.191 146.055 139.315C145.803 138.439 145.486 128.391 145.486 128.391L145.332 120.415Z" fill="#CD939C"/>
<path d="M127.108 123.223C127.108 123.223 118.92 139.143 123.285 142.741C127.65 146.339 135.823 147.536 138.629 146.339C138.629 146.339 139.927 146.698 139.733 142.512C139.539 138.326 141.24 126.641 141.24 126.641L127.108 123.223Z" fill="#CD939C"/>
<path d="M127.38 123.933C127.38 123.933 119.697 138.895 123.786 142.276C127.874 145.657 135.572 146.781 138.206 145.657C138.206 145.657 139.427 145.994 139.244 142.059C139.061 138.123 140.659 127.147 140.659 127.147L127.38 123.933Z" fill="#F6C6CD"/>
<path opacity="0.1" d="M145.159 130.095C144.843 130.331 143.044 129.765 143.044 129.765C141.098 129.626 141.791 126.164 142.143 124.788C142.232 124.446 142.299 124.233 142.299 124.233C143.213 125.43 144.841 124.92 144.841 124.92C144.841 124.92 144.889 125.305 144.953 125.864C145.12 127.319 145.385 129.932 145.159 130.095Z" fill="black"/>
<path d="M145.216 129.982C144.903 130.218 143.103 129.654 143.103 129.654C141.155 129.512 141.848 126.051 142.202 124.677C142.289 124.335 142.356 124.12 142.356 124.12C143.27 125.319 144.898 124.809 144.898 124.809C144.898 124.809 144.946 125.194 145.012 125.754C145.177 127.198 145.442 129.812 145.216 129.982Z" fill="#F6C6CD"/>
<path opacity="0.05" d="M145.216 130.067C144.903 130.303 143.103 129.739 143.103 129.739C141.155 129.597 141.848 126.138 142.202 124.762C142.289 124.42 142.356 124.207 142.356 124.207C143.27 125.404 144.898 124.894 144.898 124.894C144.898 124.894 144.946 125.279 145.012 125.838C145.177 127.286 145.442 129.897 145.216 130.067Z" fill="black"/>
<path opacity="0.1" d="M145.012 125.754C144.125 125.638 142.765 124.97 142.202 124.677C142.289 124.335 142.356 124.12 142.356 124.12C143.27 125.319 144.898 124.809 144.898 124.809C144.898 124.809 144.946 125.194 145.012 125.754Z" fill="black"/>
<path d="M144.146 124.665C144.146 124.665 141.935 130.615 145.65 129.928C145.65 129.928 147.397 129.739 147.388 128.372C147.379 127.005 146.954 123.997 146.954 123.997L144.146 124.665Z" fill="#F6C6CD"/>
<path opacity="0.1" d="M142.495 123.18C142.495 123.18 141.37 127.999 144.971 126.212C148.572 124.424 146.268 123.18 146.268 123.18L144.548 122.021L142.495 123.18Z" fill="black"/>
<path d="M142.495 123.121C142.495 123.121 141.37 127.937 144.971 126.15C148.572 124.363 146.268 123.121 146.268 123.121L144.548 121.962L142.495 123.121Z" fill="#CD939C"/>
<path opacity="0.1" d="M143.183 122.448C143.183 122.448 142.152 122.731 142.68 123.784C142.922 124.261 143.036 124.794 143.012 125.331C142.999 125.506 143.05 125.68 143.154 125.819C143.258 125.957 143.409 126.051 143.577 126.082C143.947 126.15 144.475 126.056 145.143 125.454C145.143 125.454 146.474 124.941 146.371 124.273C146.268 123.605 144.084 122.103 144.084 122.103L143.183 122.448Z" fill="black"/>
<path d="M143.183 122.387C143.183 122.387 142.152 122.672 142.68 123.725C142.922 124.202 143.036 124.735 143.012 125.272C142.999 125.447 143.05 125.621 143.154 125.76C143.258 125.898 143.409 125.992 143.577 126.023C143.947 126.089 144.475 125.994 145.143 125.395C145.143 125.395 146.474 124.88 146.371 124.214C146.268 123.548 144.084 122.044 144.084 122.044L143.183 122.387Z" fill="#F6C6CD"/>
<path opacity="0.1" d="M144.571 124.802C144.946 124.802 145.25 124.488 145.25 124.101C145.25 123.714 144.946 123.4 144.571 123.4C144.196 123.4 143.892 123.714 143.892 124.101C143.892 124.488 144.196 124.802 144.571 124.802Z" fill="black"/>
<path d="M144.571 124.743C144.946 124.743 145.25 124.429 145.25 124.042C145.25 123.655 144.946 123.341 144.571 123.341C144.196 123.341 143.892 123.655 143.892 124.042C143.892 124.429 144.196 124.743 144.571 124.743Z" fill="#CD939C"/>
<path opacity="0.1" d="M136.272 117.308C136.272 117.308 129.808 116.482 129.479 116.737C129.479 116.737 126.049 117.341 126.049 123.95C126.049 123.95 125.978 127.746 133.05 129.574C133.05 129.574 138.725 130.088 140.577 127.765C142.429 125.442 141.51 121.534 141.51 121.534C141.51 121.534 142.248 118.548 145.678 120.614C145.678 120.614 146.037 119.433 144.489 118.866C142.941 118.3 136.272 117.308 136.272 117.308Z" fill="black"/>
<path d="M136.272 117.19C136.272 117.19 129.808 116.364 129.479 116.616C129.479 116.616 126.049 117.221 126.049 123.829C126.049 123.829 125.978 127.628 133.05 129.456C133.05 129.456 138.725 129.97 140.577 127.647C142.429 125.324 141.51 121.416 141.51 121.416C141.51 121.416 142.248 118.43 145.678 120.493C145.678 120.493 146.037 119.313 144.489 118.746C142.941 118.179 136.272 117.19 136.272 117.19Z" fill="#CD939C"/>
<path opacity="0.1" d="M136.47 117.211C136.47 117.211 130.187 116.435 129.867 116.673C129.867 116.673 126.538 117.242 126.538 123.463C126.538 123.463 126.47 127.036 133.343 128.757C133.343 128.757 138.86 129.229 140.659 127.054C142.459 124.88 141.574 121.19 141.574 121.19C141.574 121.19 142.292 118.378 145.625 120.323C145.625 120.323 145.977 119.216 144.482 118.671C142.987 118.125 136.47 117.211 136.47 117.211Z" fill="black"/>
<path d="M136.47 117.152C136.47 117.152 130.187 116.376 129.867 116.614C129.867 116.614 126.538 117.183 126.538 123.402C126.538 123.402 126.47 126.977 133.343 128.695C133.343 128.695 138.86 129.168 140.659 126.993C142.459 124.819 141.574 121.131 141.574 121.131C141.574 121.131 142.292 118.319 145.625 120.262C145.625 120.262 145.977 119.157 144.482 118.609C142.987 118.061 136.47 117.152 136.47 117.152Z" fill="#F6C6CD"/>
<path d="M133.313 127.378C133.313 127.378 131.605 126.573 131.518 128.086C131.518 128.086 130.94 129.611 130.91 129.791C130.88 129.97 130.997 131.524 132.33 131.465C132.7 131.46 133.062 131.352 133.378 131.153C133.694 130.953 133.952 130.67 134.124 130.331C134.124 130.331 134.415 128.66 134.81 128.301C135.206 127.942 134.52 127.593 134.259 127.593C133.938 127.55 133.622 127.478 133.313 127.378Z" fill="#CD939C"/>
<path opacity="0.1" d="M133.082 127.139C133.082 127.139 131.374 126.334 131.287 127.848C131.287 127.848 130.709 129.373 130.679 129.552C130.649 129.732 130.766 131.285 132.099 131.226C132.47 131.221 132.832 131.113 133.148 130.912C133.464 130.712 133.722 130.427 133.894 130.088C133.894 130.088 134.182 128.414 134.58 128.055C134.978 127.697 134.289 127.347 134.029 127.347C133.708 127.306 133.391 127.237 133.082 127.139Z" fill="black"/>
<path d="M133.139 127.08C133.139 127.08 131.431 126.273 131.344 127.789C131.344 127.789 130.766 129.314 130.736 129.493C130.706 129.673 130.823 131.229 132.156 131.17C132.527 131.164 132.89 131.055 133.206 130.855C133.522 130.654 133.779 130.369 133.951 130.029C133.951 130.029 134.241 128.358 134.637 127.999C135.032 127.64 134.346 127.291 134.086 127.291C133.765 127.249 133.448 127.178 133.139 127.08Z" fill="#F6C6CD"/>
<path opacity="0.1" d="M132.286 130.686C132.629 130.686 132.906 130.399 132.906 130.046C132.906 129.692 132.629 129.406 132.286 129.406C131.944 129.406 131.667 129.692 131.667 130.046C131.667 130.399 131.944 130.686 132.286 130.686Z" fill="black"/>
<path d="M132.286 130.627C132.629 130.627 132.906 130.34 132.906 129.987C132.906 129.633 132.629 129.347 132.286 129.347C131.944 129.347 131.667 129.633 131.667 129.987C131.667 130.34 131.944 130.627 132.286 130.627Z" fill="#CD939C"/>
<path d="M138.078 133.481C138.078 133.481 131.344 132.671 126.646 130.176C126.646 130.176 122.939 139.823 125.893 141.173C128.847 142.524 134.986 144.684 136.708 143.938C136.708 143.938 137.737 144.113 137.394 140.602C137.051 137.091 138.078 133.481 138.078 133.481Z" fill="#CD939C"/>
<path opacity="0.1" d="M137.673 134.168C137.673 134.168 130.94 133.405 126.241 131.059C126.241 131.059 122.533 140.134 125.487 141.404C128.441 142.675 134.58 144.71 136.304 144.002C136.304 144.002 137.333 144.167 136.99 140.861C136.647 137.556 137.673 134.168 137.673 134.168Z" fill="black"/>
<path d="M137.787 134.109C137.787 134.109 131.056 133.346 126.355 131C126.355 131 122.649 140.075 125.603 141.346C128.557 142.616 134.696 144.651 136.42 143.943C136.42 143.943 137.447 144.108 137.106 140.802C136.765 137.497 137.787 134.109 137.787 134.109Z" fill="#F6C6CD"/>
<g opacity="0.1">
<path opacity="0.1" d="M144.464 118.569C142.957 118.031 136.461 117.105 136.461 117.105C136.461 117.105 130.178 116.326 129.858 116.567C129.858 116.567 128.235 116.843 127.256 119.129C128.242 117.077 129.744 116.819 129.744 116.819C130.062 116.583 136.347 117.358 136.347 117.358C136.347 117.358 142.833 118.286 144.349 118.824C145.36 119.185 145.534 119.801 145.538 120.17L145.618 120.215C145.618 120.215 145.97 119.107 144.464 118.569Z" fill="black"/>
<path opacity="0.1" d="M141.624 120.913C141.552 121.047 141.494 121.189 141.452 121.336C141.452 121.336 142.09 123.957 141.189 126.101C142.248 123.928 141.558 121.081 141.558 121.081C141.558 121.081 141.585 121.017 141.624 120.913Z" fill="black"/>
</g>
</g>
<defs>
<linearGradient id="paint0_linear" x1="93.7789" y1="158.321" x2="93.7789" y2="18.8997" gradientUnits="userSpaceOnUse">
<stop stop-color="#808080" stop-opacity="0.25"/>
<stop offset="0.54" stop-color="#808080" stop-opacity="0.12"/>
<stop offset="1" stop-color="#808080" stop-opacity="0.1"/>
</linearGradient>
<linearGradient id="paint1_linear" x1="17700.2" y1="23421.7" x2="17700.2" y2="18387.6" gradientUnits="userSpaceOnUse">
<stop stop-color="#808080" stop-opacity="0.25"/>
<stop offset="0.54" stop-color="#808080" stop-opacity="0.12"/>
<stop offset="1" stop-color="#808080" stop-opacity="0.1"/>
</linearGradient>
<clipPath id="clip0">
<rect width="249" height="187" fill="white"/>
</clipPath>
</defs>
</svg>
