<svg width="254" height="187" viewBox="0 0 254 187" fill="none" xmlns="http://www.w3.org/2000/svg">
<path d="M252.601 173.776C252.573 173.853 252.517 173.915 252.445 173.949C252.373 173.983 252.291 173.986 252.216 173.958L14.7233 82.5488C14.6492 82.5201 14.5891 82.4621 14.5563 82.3876C14.5234 82.3132 14.5205 82.2283 14.5481 82.1515C14.5757 82.0748 14.6316 82.0126 14.7035 81.9784C14.7754 81.9443 14.8575 81.941 14.9317 81.9694L252.425 173.379C252.499 173.407 252.559 173.465 252.592 173.54C252.625 173.614 252.628 173.699 252.601 173.776Z" fill="#F2F2F2"/>
<path d="M126.09 0H69.4988C65.0595 0.00519566 60.8035 1.83158 57.6645 5.07847C54.5254 8.32536 52.7597 12.7276 52.7547 17.3194V22.6103C52.6385 22.5772 52.5166 22.5726 52.3984 22.5966C52.2802 22.6207 52.169 22.6728 52.0736 22.749C51.9782 22.8251 51.9013 22.9231 51.8488 23.0353C51.7964 23.1475 51.7698 23.2707 51.7713 23.3953V27.464C51.7698 27.5886 51.7964 27.7119 51.8488 27.8241C51.9013 27.9362 51.9782 28.0342 52.0736 28.1104C52.169 28.1865 52.2802 28.2387 52.3984 28.2627C52.5166 28.2868 52.6385 28.2821 52.7547 28.249V34.4097C52.6385 34.3766 52.5166 34.3719 52.3984 34.396C52.2802 34.42 52.169 34.4722 52.0736 34.5483C51.9782 34.6244 51.9013 34.7225 51.8488 34.8346C51.7963 34.9468 51.7698 35.0701 51.7713 35.1947V45.3665C51.7698 45.4911 51.7963 45.6144 51.8488 45.7266C51.9013 45.8387 51.9782 45.9368 52.0736 46.0129C52.169 46.089 52.2802 46.1412 52.3984 46.1652C52.5166 46.1893 52.6385 46.1846 52.7547 46.1515V49.8709C52.6385 49.8379 52.5166 49.8332 52.3984 49.8572C52.2802 49.8813 52.169 49.9334 52.0736 50.0095C51.9782 50.0857 51.9013 50.1837 51.8488 50.2959C51.7963 50.4081 51.7698 50.5313 51.7713 50.6559V60.8278C51.7698 60.9524 51.7963 61.0756 51.8488 61.1878C51.9013 61.3 51.9782 61.398 52.0736 61.4741C52.169 61.5503 52.2802 61.6024 52.3984 61.6265C52.5166 61.6505 52.6385 61.6458 52.7547 61.6127V169.029C52.7597 173.621 54.5254 178.023 57.6645 181.27C60.8035 184.517 65.0595 186.343 69.4988 186.349H126.09C130.529 186.343 134.785 184.517 137.924 181.27C141.063 178.023 142.829 173.621 142.834 169.029V17.3194C142.829 12.7276 141.063 8.32536 137.924 5.07847C134.785 1.83158 130.529 0.00519566 126.09 0ZM139.294 169.029C139.29 172.65 137.897 176.122 135.422 178.682C132.947 181.242 129.59 182.683 126.09 182.687H69.4988C65.9981 182.683 62.642 181.242 60.1666 178.682C57.6913 176.122 56.2989 172.65 56.295 169.029V17.3194C56.2989 13.6984 57.6913 10.227 60.1666 7.6666C62.642 5.10621 65.9981 3.66598 69.4988 3.66187H126.09C129.59 3.66597 132.947 5.10621 135.422 7.6666C137.897 10.227 139.29 13.6984 139.294 17.3194V169.029Z" fill="#3F3D56"/>
<path d="M126.09 184.721H69.499C65.4769 184.716 61.6208 183.062 58.7768 180.12C55.9327 177.178 54.3329 173.189 54.3284 169.029V17.3194C54.3329 13.1591 55.9327 9.17053 58.7768 6.22875C61.6208 3.28697 65.4769 1.63221 69.499 1.62749H126.09C130.112 1.63221 133.968 3.28697 136.812 6.22875C139.656 9.17052 141.256 13.1591 141.261 17.3194V169.029C141.256 173.189 139.656 177.178 136.812 180.12C133.968 183.062 130.112 184.716 126.09 184.721Z" fill="#E6E6E6"/>
<path d="M127.488 182.28H68.1004C65.3877 182.277 62.7869 181.161 60.8687 179.176C58.9505 177.192 57.8715 174.502 57.8684 171.696V14.6522C57.8715 11.8463 58.9505 9.15619 60.8687 7.17209C62.7869 5.18798 65.3876 4.07192 68.1004 4.06874H75.8452C76.2936 4.06927 76.7234 4.25374 77.0405 4.58168C77.3575 4.90962 77.5359 5.35425 77.5364 5.81802C77.5378 7.18808 78.0647 8.50159 79.0013 9.47036C79.9379 10.4391 81.2078 10.9841 82.5323 10.9856H112.27C113.594 10.9841 114.864 10.4391 115.801 9.47036C116.737 8.50158 117.264 7.18807 117.266 5.81801C117.266 5.35424 117.444 4.90961 117.762 4.58167C118.079 4.25373 118.508 4.06926 118.957 4.06873H127.488C130.201 4.07191 132.802 5.18797 134.72 7.17207C136.638 9.15617 137.717 11.8463 137.72 14.6522V171.696C137.717 174.502 136.638 177.192 134.72 179.176C132.802 181.161 130.201 182.277 127.488 182.28Z" fill="white"/>
<path d="M100.351 7.62892H93.2708C93.0622 7.62892 92.8621 7.54319 92.7146 7.39058C92.567 7.23797 92.4841 7.03099 92.4841 6.81517C92.4841 6.59935 92.567 6.39237 92.7146 6.23976C92.8621 6.08715 93.0622 6.00142 93.2708 6.00142H100.351C100.56 6.00142 100.76 6.08715 100.908 6.23976C101.055 6.39237 101.138 6.59935 101.138 6.81517C101.138 7.03099 101.055 7.23797 100.908 7.39058C100.76 7.54319 100.56 7.62892 100.351 7.62892Z" fill="white"/>
<path d="M105.268 7.42547C105.486 7.42547 105.662 7.24331 105.662 7.0186C105.662 6.79389 105.486 6.61172 105.268 6.61172C105.051 6.61172 104.875 6.79389 104.875 7.0186C104.875 7.24331 105.051 7.42547 105.268 7.42547Z" fill="white"/>
<path d="M139.634 35.8546H55.8772V36.7818H139.634V35.8546Z" fill="#E6E6E6"/>
<path d="M139.634 54.4H55.8772V55.3273H139.634V54.4Z" fill="#E6E6E6"/>
<path d="M139.634 92.7273H55.8772V93.6546H139.634V92.7273Z" fill="#E6E6E6"/>
<path d="M139.634 131.055H55.8772V131.982H139.634V131.055Z" fill="#E6E6E6"/>
<path d="M139.634 161.036H55.8772V161.964H139.634V161.036Z" fill="#E6E6E6"/>
<path d="M116.703 36.3182H115.807V93.1909H116.703V36.3182Z" fill="#E6E6E6"/>
<path d="M74.7737 93.1743H73.8772V161.5H74.7737V93.1743Z" fill="#E6E6E6"/>
<path d="M137.72 111.916H74.3254V112.844H137.72V111.916Z" fill="#E6E6E6"/>
<path d="M116.8 161.5H115.903V182.28H116.8V161.5Z" fill="#E6E6E6"/>
<path d="M116.105 73.9434H57.719V74.8706H116.105V73.9434Z" fill="#E6E6E6"/>
<path d="M69.9125 3.48285L69.0854 3.84084L82.2978 36.4972L83.1248 36.1392L69.9125 3.48285Z" fill="#E6E6E6"/>
<path d="M110.604 10.9855H109.708V36.3182H110.604V10.9855Z" fill="#E6E6E6"/>
<path d="M133.721 50.3818C133.721 58.6903 121.302 78.0504 117.672 83.5308C117.563 83.6965 117.416 83.832 117.244 83.9257C117.073 84.0193 116.882 84.0683 116.688 84.0683C116.494 84.0683 116.303 84.0193 116.131 83.9257C115.959 83.832 115.812 83.6965 115.703 83.5308C112.074 78.0504 99.6548 58.6903 99.6548 50.3818C99.6548 45.7092 101.449 41.2279 104.644 37.9239C107.838 34.6198 112.17 32.7636 116.688 32.7636C121.205 32.7636 125.538 34.6198 128.732 37.9239C131.926 41.2279 133.721 45.7092 133.721 50.3818Z" fill="#F78065"/>
<path d="M116.688 58.1091C121.474 58.1091 125.353 54.0959 125.353 49.1455C125.353 44.195 121.474 40.1818 116.688 40.1818C111.902 40.1818 108.022 44.195 108.022 49.1455C108.022 54.0959 111.902 58.1091 116.688 58.1091Z" fill="white"/>
<path d="M116.12 93.4575L83.3013 161.282L84.1029 161.697L116.921 93.8725L116.12 93.4575Z" fill="#E6E6E6"/>
<path d="M163.384 108.377C163.771 108.592 164.199 108.717 164.638 108.742C165.076 108.768 165.515 108.694 165.923 108.525C166.331 108.356 166.698 108.097 166.998 107.766C167.299 107.434 167.526 107.039 167.663 106.607L178.339 106.416L175.205 101.68L165.547 102.587C164.83 102.397 164.071 102.486 163.414 102.837C162.756 103.187 162.246 103.775 161.979 104.488C161.713 105.202 161.709 105.992 161.968 106.709C162.227 107.425 162.731 108.019 163.384 108.377H163.384Z" fill="#FFB8B8"/>
<path d="M169.794 108.239C169.628 108.239 169.465 108.204 169.313 108.137C169.16 108.07 169.023 107.971 168.909 107.847C168.794 107.724 168.705 107.578 168.647 107.417C168.589 107.257 168.562 107.086 168.57 106.915L168.785 101.851C168.797 101.55 168.913 101.263 169.112 101.042C169.311 100.821 169.58 100.681 169.87 100.648L182.238 99.1809L181.824 107.62L169.854 108.237C169.834 108.238 169.814 108.239 169.794 108.239Z" fill="#F78065"/>
<path d="M184.858 177.652L181.375 178.828L175.331 165.494L180.471 163.758L184.858 177.652Z" fill="#FFB8B8"/>
<path d="M186.848 180.843L175.619 184.637L175.573 184.49C175.385 183.896 175.313 183.27 175.359 182.647C175.406 182.025 175.57 181.417 175.844 180.86C176.117 180.304 176.494 179.808 176.952 179.401C177.411 178.995 177.942 178.686 178.516 178.492L178.516 178.492L185.375 176.175L186.848 180.843Z" fill="#2F2E41"/>
<path d="M195.115 183.228L191.451 183.228L189.709 168.611L195.116 168.612L195.115 183.228Z" fill="#FFB8B8"/>
<path d="M196.049 186.901L184.237 186.901V186.746C184.237 186.122 184.355 185.503 184.587 184.926C184.818 184.349 185.156 183.825 185.583 183.383C186.01 182.942 186.517 182.591 187.075 182.352C187.633 182.113 188.231 181.99 188.834 181.99H188.835L196.049 181.991L196.049 186.901Z" fill="#2F2E41"/>
<path d="M189.551 179.67C189.251 179.67 188.962 179.556 188.738 179.35C188.514 179.145 188.371 178.861 188.335 178.554L183.612 137.709L176.698 149.189L184.81 170.633C184.92 170.93 184.92 171.258 184.808 171.554C184.697 171.85 184.483 172.092 184.208 172.233L177.326 175.717C177.169 175.796 176.997 175.84 176.822 175.845C176.648 175.85 176.474 175.817 176.312 175.747C176.151 175.677 176.006 175.572 175.888 175.439C175.769 175.306 175.679 175.148 175.624 174.977L167.998 151.143C167.423 149.35 167.348 147.425 167.781 145.589L172.712 124.657L172.77 124.624L183.886 118.326L183.95 118.351L197.041 123.293L195.671 150.127L196.666 177.979C196.68 178.31 196.567 178.633 196.352 178.878C196.137 179.124 195.837 179.272 195.517 179.291L189.627 179.668C189.602 179.669 189.576 179.67 189.551 179.67Z" fill="#2F2E41"/>
<path d="M182.34 132.611C180.384 132.611 178.736 132.035 177.705 130.57L177.672 130.523L178.339 123.282L172.406 126.689C172.283 126.759 172.142 126.789 172.002 126.774C171.862 126.759 171.73 126.7 171.623 126.605C171.517 126.51 171.441 126.384 171.406 126.243C171.372 126.102 171.379 125.953 171.429 125.817L178.828 105.491L183.714 88.9341C183.956 87.609 184.582 86.3912 185.508 85.442C186.435 84.4928 187.618 83.8571 188.901 83.6189C193.254 82.792 195.846 84.311 198.839 87.6819C199.563 88.5021 200.096 89.4825 200.398 90.5484C200.7 91.6142 200.762 92.7372 200.58 93.8317L197.748 110.572L198.58 125.582C198.644 125.841 198.627 126.114 198.531 126.362C198.436 126.61 198.267 126.82 198.049 126.963C195.735 128.487 188.638 132.61 182.34 132.611Z" fill="#F78065"/>
<path d="M192.242 81.1119C196.295 81.1119 199.581 77.713 199.581 73.5203C199.581 69.3276 196.295 65.9287 192.242 65.9287C188.188 65.9287 184.902 69.3276 184.902 73.5203C184.902 77.713 188.188 81.1119 192.242 81.1119Z" fill="#FFB8B8"/>
<path d="M194.153 127.635C194.553 127.446 194.907 127.168 195.191 126.822C195.476 126.476 195.683 126.069 195.799 125.631C195.915 125.192 195.937 124.733 195.863 124.285C195.789 123.837 195.62 123.412 195.37 123.038L201.665 114.116L196.122 113.844L190.994 122.359C190.416 122.835 190.026 123.515 189.9 124.269C189.773 125.022 189.918 125.798 190.308 126.448C190.697 127.099 191.304 127.579 192.013 127.798C192.721 128.016 193.483 127.959 194.153 127.635Z" fill="#FFB8B8"/>
<path d="M197.562 122.6C197.255 122.646 196.943 122.569 196.688 122.385L192.521 119.38C192.271 119.2 192.094 118.93 192.026 118.623C191.958 118.316 192.004 117.994 192.154 117.719L199.573 104.067L192.111 94.7766C191.719 94.2887 191.43 93.7218 191.262 93.112C191.093 92.5022 191.049 91.8628 191.133 91.2344C191.216 90.6061 191.425 90.0026 191.747 89.4624C192.068 88.9223 192.494 88.4572 192.999 88.0968C193.503 87.7364 194.075 87.4886 194.677 87.3691C195.279 87.2497 195.899 87.2613 196.497 87.4031C197.094 87.5448 197.657 87.8138 198.149 88.1927C198.64 88.5717 199.05 89.0524 199.353 89.6042L207.591 104.645C207.65 104.752 207.68 104.873 207.68 104.996C207.68 105.119 207.649 105.24 207.591 105.347L198.454 121.972C198.37 122.125 198.256 122.258 198.119 122.363C197.982 122.468 197.825 122.543 197.659 122.582C197.627 122.59 197.595 122.596 197.562 122.6Z" fill="#F78065"/>
<path d="M189.308 72.5512C188.582 71.9903 187.576 72.0779 186.716 71.7839C186.203 71.6088 185.744 71.2975 185.385 70.8811C185.025 70.4648 184.778 69.9579 184.668 69.4115C184.557 68.8651 184.588 68.2983 184.756 67.7679C184.925 67.2375 185.225 66.7622 185.627 66.3897C186.556 65.5281 187.879 65.3326 189.118 65.1749C190.815 64.959 192.528 64.7427 194.23 64.9144C195.932 65.0861 197.645 65.6807 198.889 66.8943C200.261 68.2324 200.937 70.2243 200.941 72.1744C200.893 74.1337 200.373 76.0496 199.428 77.7484C199.136 78.3939 198.696 78.9557 198.146 79.3848C197.573 79.7757 196.766 79.8779 196.215 79.4558C195.739 79.091 195.564 78.4519 195.349 77.8805C195.134 77.3091 194.766 76.7005 194.179 76.6124C193.424 76.4989 192.847 77.2935 192.126 77.5536C191.118 77.9172 189.998 77.1129 189.587 76.0935C189.175 75.0741 189.284 73.9208 189.399 72.8227" fill="#2F2E41"/>
<path d="M254 186.691C254 186.773 253.968 186.851 253.912 186.909C253.856 186.967 253.78 187 253.701 187H0.298824C0.219571 187 0.143563 186.967 0.0875232 186.909C0.0314829 186.851 0 186.773 0 186.691C0 186.609 0.0314829 186.53 0.0875232 186.472C0.143563 186.414 0.219571 186.382 0.298824 186.382H253.701C253.78 186.382 253.856 186.415 253.912 186.473C253.968 186.531 254 186.609 254 186.691Z" fill="#CCCCCC"/>
<path d="M116.688 97.0546C118.833 97.0546 120.572 95.2555 120.572 93.0364C120.572 90.8172 118.833 89.0182 116.688 89.0182C114.542 89.0182 112.803 90.8172 112.803 93.0364C112.803 95.2555 114.542 97.0546 116.688 97.0546Z" fill="#F78065"/>
<path d="M171.378 49.1026C169.756 51.3391 162.632 53.956 160.585 54.673C160.523 54.6947 160.457 54.7005 160.393 54.6899C160.328 54.6793 160.267 54.6525 160.215 54.612C160.163 54.5714 160.121 54.5183 160.093 54.4573C160.065 54.3962 160.052 54.329 160.055 54.2616C160.148 52.0281 160.586 44.222 162.208 41.9855C163.121 40.7277 164.479 39.8963 165.984 39.6742C167.489 39.4522 169.018 39.8576 170.234 40.8014C171.45 41.7452 172.253 43.15 172.468 44.7068C172.683 46.2635 172.291 47.8447 171.378 49.1026Z" fill="#F2F2F2"/>
<path d="M167.035 48.2278C168.645 48.2278 169.951 46.8772 169.951 45.2112C169.951 43.5451 168.645 42.1946 167.035 42.1946C165.424 42.1946 164.118 43.5451 164.118 45.2112C164.118 46.8772 165.424 48.2278 167.035 48.2278Z" fill="white"/>
<path d="M158.464 58.3783C159.186 58.3783 159.771 57.7729 159.771 57.026C159.771 56.2792 159.186 55.6738 158.464 55.6738C157.742 55.6738 157.156 56.2792 157.156 57.026C157.156 57.7729 157.742 58.3783 158.464 58.3783Z" fill="#F2F2F2"/>
<path d="M29.1882 110.451C31.5755 114.223 31.4992 126.833 31.426 130.437C31.4238 130.546 31.3961 130.652 31.3451 130.748C31.2941 130.843 31.2214 130.924 31.1332 130.984C31.0451 131.043 30.9443 131.08 30.8395 131.09C30.7346 131.1 30.629 131.084 30.5317 131.042C27.3089 129.669 16.1066 124.696 13.7193 120.923C13.0535 119.873 12.5945 118.697 12.3683 117.463C12.1421 116.228 12.1532 114.96 12.4011 113.731C12.6489 112.501 13.1286 111.334 13.8127 110.296C14.4968 109.258 15.3719 108.37 16.388 107.682C17.4041 106.994 18.5414 106.52 19.7347 106.287C20.928 106.053 22.1541 106.066 23.3428 106.323C24.5315 106.58 25.6596 107.077 26.6625 107.785C27.6655 108.493 28.5237 109.399 29.1882 110.451Z" fill="#F2F2F2"/>
<path d="M21.0986 119.99C23.696 119.99 25.8016 117.812 25.8016 115.126C25.8016 112.439 23.696 110.261 21.0986 110.261C18.5011 110.261 16.3955 112.439 16.3955 115.126C16.3955 117.812 18.5011 119.99 21.0986 119.99Z" fill="white"/>
<path d="M33.7103 137.237C34.8747 137.237 35.8186 136.26 35.8186 135.056C35.8186 133.852 34.8747 132.875 33.7103 132.875C32.546 132.875 31.6021 133.852 31.6021 135.056C31.6021 136.26 32.546 137.237 33.7103 137.237Z" fill="#F2F2F2"/>
</svg>
