<svg width="224" height="187" viewBox="0 0 224 187" fill="none" xmlns="http://www.w3.org/2000/svg">
<g clip-path="url(#clip0)">
<path d="M38.9278 127.029H38.2154C38.1209 127.029 38.0304 126.99 37.9636 126.921C37.8968 126.852 37.8592 126.759 37.8591 126.661V125.925C37.8592 125.827 37.8968 125.734 37.9636 125.665C38.0304 125.595 38.1209 125.557 38.2154 125.557H38.9278C39.0223 125.557 39.1128 125.595 39.1796 125.665C39.2464 125.734 39.2839 125.827 39.284 125.925V126.661C39.2839 126.759 39.2464 126.852 39.1796 126.921C39.1128 126.99 39.0223 127.029 38.9278 127.029Z" fill="#CCCCCC"/>
<path d="M38.585 126.218C38.5714 126.218 38.5578 126.217 38.5444 126.214C38.5137 126.209 38.4843 126.197 38.4579 126.18C38.4315 126.163 38.4087 126.14 38.3907 126.114C38.3727 126.088 38.3599 126.058 38.353 126.027C38.3461 125.995 38.3453 125.963 38.3506 125.931L40.6993 111.808C40.7103 111.744 40.7453 111.687 40.7967 111.65C40.848 111.613 40.9115 111.598 40.9733 111.609C41.0351 111.62 41.0902 111.656 41.1266 111.709C41.1629 111.761 41.1776 111.827 41.1674 111.891L38.8187 126.014C38.8092 126.071 38.7806 126.123 38.7378 126.16C38.695 126.197 38.6409 126.218 38.585 126.218Z" fill="#CCCCCC"/>
<path d="M38.5843 126.218C38.5284 126.218 38.4742 126.197 38.4315 126.16C38.3887 126.123 38.36 126.071 38.3505 126.014L36.002 111.891C35.9917 111.827 36.0064 111.761 36.0428 111.709C36.0791 111.656 36.1342 111.62 36.196 111.609C36.2578 111.598 36.3214 111.613 36.3727 111.65C36.424 111.687 36.459 111.744 36.4701 111.808L38.8187 125.931C38.824 125.963 38.8231 125.995 38.8163 126.027C38.8094 126.058 38.7966 126.088 38.7786 126.114C38.7606 126.14 38.7377 126.163 38.7114 126.18C38.685 126.197 38.6556 126.209 38.6248 126.214C38.6115 126.217 38.5979 126.218 38.5843 126.218Z" fill="#CCCCCC"/>
<path d="M43.6407 109.39C43.8697 107.714 43.0035 106.202 41.706 106.013C40.4085 105.823 39.1711 107.029 38.9421 108.705C38.7491 110.118 39.3365 111.412 40.3032 111.897L40.2481 112.3L41.4228 112.471L41.4778 112.068C42.5366 111.879 43.4476 110.804 43.6407 109.39Z" fill="#FF6584"/>
<path d="M38.1864 108.627C37.9053 106.96 36.631 105.796 35.34 106.029C34.0491 106.261 33.2305 107.801 33.5116 109.469C33.7486 110.875 34.6926 111.919 35.7568 112.074L35.8244 112.475L36.9931 112.264L36.9255 111.863C37.8766 111.346 38.4234 110.034 38.1864 108.627Z" fill="#CCCCCC"/>
<path d="M38.5715 125.925C38.5085 125.925 38.4481 125.899 38.4036 125.853C38.359 125.807 38.334 125.744 38.334 125.679V111.161C38.3337 111.128 38.3397 111.096 38.3515 111.066C38.3633 111.036 38.3807 111.009 38.4028 110.986C38.4249 110.963 38.4512 110.944 38.4801 110.932C38.5091 110.919 38.5401 110.913 38.5715 110.913C38.6028 110.913 38.6339 110.919 38.6628 110.932C38.6918 110.944 38.7181 110.963 38.7401 110.986C38.7622 111.009 38.7797 111.036 38.7915 111.066C38.8033 111.096 38.8092 111.128 38.809 111.161V125.679C38.809 125.744 38.7839 125.807 38.7394 125.853C38.6949 125.899 38.6345 125.925 38.5715 125.925Z" fill="#CCCCCC"/>
<path d="M40.7969 108.372C40.7969 106.679 39.7347 105.307 38.4243 105.307C37.114 105.307 36.0518 106.679 36.0518 108.372C36.0518 109.799 36.8084 110.995 37.8312 111.336V111.743H39.0175V111.336C40.0403 110.996 40.7969 109.799 40.7969 108.372Z" fill="#F78065"/>
<path d="M149.162 187L149.115 186.995L74.8378 179.865L7.29539 186.349C6.37035 186.438 5.43756 186.326 4.55664 186.021C3.67573 185.716 2.86607 185.225 2.17944 184.578C1.49281 183.931 0.944308 183.144 0.568997 182.265C0.193687 181.387 -0.000173452 180.438 -0.000188413 179.478V13.4741C-0.00700651 11.7523 0.612024 10.0906 1.73434 8.81811C2.85666 7.54557 4.40045 6.75492 6.06003 6.6027L74.8378 0L74.8853 0.00466312L149.162 7.13511L216.704 0.651118C217.629 0.562314 218.562 0.673952 219.443 0.978893C220.324 1.28383 221.134 1.77537 221.82 2.42208C222.507 3.06878 223.055 3.85643 223.431 4.73467C223.806 5.61291 224 6.56241 224 7.52248V173.526C224.007 175.248 223.388 176.909 222.265 178.182C221.143 179.454 219.599 180.245 217.94 180.397L149.162 187ZM74.8378 178.799L74.8853 178.803L149.162 185.934L217.845 179.34C219.249 179.211 220.555 178.542 221.505 177.466C222.454 176.389 222.978 174.983 222.972 173.526V7.52248C222.972 6.71011 222.808 5.90668 222.491 5.16355C222.173 4.42041 221.709 3.75393 221.128 3.20671C220.547 2.65949 219.862 2.24356 219.117 1.98553C218.371 1.72749 217.582 1.63302 216.799 1.70815L149.162 8.20147L149.115 8.19681L74.8378 1.06637L6.15506 7.65975L6.10754 7.13123L6.15506 7.65975C4.75079 7.78859 3.44452 8.45763 2.49487 9.5344C1.54522 10.6112 1.02142 12.0172 1.02718 13.4741V179.478C1.02718 180.29 1.19122 181.093 1.50878 181.836C1.82635 182.58 2.29046 183.246 2.87146 183.793C3.45245 184.341 4.13755 184.756 4.88294 185.014C5.62833 185.273 6.41761 185.367 7.20035 185.292L74.8378 178.799Z" fill="#E6E6E6"/>
<path d="M214.016 42.4859C214.016 37.7654 210.31 26.5638 205.739 26.5638C201.168 26.5638 197.463 37.7654 197.463 42.4859C197.464 44.7534 198.337 46.9276 199.889 48.5305C201.441 50.1334 203.545 51.0338 205.739 51.0338C207.933 51.0338 210.038 50.1334 211.59 48.5305C213.142 46.9276 214.014 44.7534 214.016 42.4859Z" fill="#3F3D56"/>
<path d="M205.739 61.4259C205.714 61.4259 205.69 61.4155 205.672 61.3972C205.654 61.3789 205.644 61.354 205.644 61.328V41.3616C205.644 41.3357 205.654 41.311 205.672 41.2928C205.69 41.2746 205.714 41.2643 205.739 41.2643C205.764 41.2643 205.788 41.2746 205.806 41.2928C205.823 41.311 205.833 41.3357 205.834 41.3616V61.328C205.834 61.3409 205.831 61.3536 205.826 61.3655C205.822 61.3773 205.815 61.3881 205.806 61.3972C205.797 61.4063 205.787 61.4135 205.775 61.4184C205.764 61.4233 205.751 61.4259 205.739 61.4259Z" fill="#CCCCCC"/>
<path d="M205.739 45.092C205.726 45.092 205.712 45.089 205.7 45.0832C205.687 45.0774 205.676 45.0689 205.668 45.0583L200.907 39.3855C200.891 39.3659 200.883 39.3404 200.885 39.3145C200.887 39.2887 200.898 39.2647 200.917 39.2477C200.936 39.2307 200.961 39.2222 200.986 39.224C201.011 39.2258 201.034 39.2378 201.051 39.2573L205.811 44.9301C205.822 44.9443 205.83 44.9617 205.833 44.9803C205.835 44.9988 205.833 45.0177 205.825 45.0348C205.818 45.0519 205.805 45.0663 205.79 45.0765C205.775 45.0866 205.757 45.092 205.739 45.092V45.092Z" fill="#CCCCCC"/>
<path d="M205.739 48.3659C205.72 48.3659 205.702 48.3601 205.687 48.3494C205.671 48.3386 205.659 48.3234 205.652 48.3055C205.645 48.2876 205.643 48.268 205.646 48.249C205.65 48.23 205.659 48.2126 205.672 48.1989L208.377 45.4038C208.386 45.3947 208.396 45.3875 208.408 45.3826C208.419 45.3777 208.431 45.3751 208.444 45.3751C208.456 45.3751 208.469 45.3777 208.48 45.3826C208.492 45.3875 208.502 45.3947 208.511 45.4038C208.52 45.4129 208.527 45.4236 208.531 45.4355C208.536 45.4474 208.539 45.4601 208.539 45.4729C208.539 45.4858 208.536 45.4985 208.531 45.5104C208.527 45.5222 208.52 45.533 208.511 45.5421L205.806 48.3372C205.797 48.3463 205.787 48.3535 205.775 48.3585C205.764 48.3634 205.752 48.3659 205.739 48.3659Z" fill="#CCCCCC"/>
<path d="M196.775 61.2963C196.775 60.3493 197.139 59.441 197.787 58.7714C198.435 58.1018 199.314 57.7256 200.23 57.7256C201.146 57.7256 202.025 58.1018 202.673 58.7714C203.321 59.441 203.685 60.3493 203.685 61.2963" fill="#F2F2F2"/>
<path d="M200.23 61.2962C200.205 61.2962 200.182 61.2861 200.164 61.268C200.147 61.2499 200.137 61.2253 200.137 61.1997V59.3179C200.137 59.2923 200.147 59.2678 200.164 59.2497C200.182 59.2316 200.205 59.2214 200.23 59.2214C200.255 59.2214 200.279 59.2316 200.296 59.2497C200.314 59.2678 200.323 59.2923 200.323 59.3179V61.1997C200.323 61.2253 200.314 61.2499 200.296 61.268C200.279 61.2861 200.255 61.2962 200.23 61.2962Z" fill="#CCCCCC"/>
<path d="M200.23 60.6496C200.208 60.6496 200.186 60.6414 200.169 60.6263L199.049 59.6324C199.039 59.6241 199.032 59.614 199.026 59.6027C199.021 59.5914 199.017 59.5791 199.016 59.5665C199.015 59.5538 199.017 59.5411 199.021 59.5291C199.025 59.5171 199.031 59.5059 199.039 59.4963C199.047 59.4867 199.056 59.4788 199.067 59.4731C199.078 59.4673 199.09 59.4639 199.102 59.4629C199.115 59.462 199.127 59.4635 199.139 59.4674C199.15 59.4714 199.161 59.4777 199.17 59.4859L200.291 60.4799C200.305 60.4927 200.316 60.5098 200.321 60.5289C200.325 60.548 200.324 60.5681 200.318 60.5866C200.311 60.6051 200.299 60.6211 200.283 60.6323C200.268 60.6436 200.249 60.6496 200.23 60.6496H200.23Z" fill="#CCCCCC"/>
<path d="M207.421 61.2963C207.421 60.3493 207.785 59.441 208.433 58.7714C209.081 58.1018 209.96 57.7256 210.876 57.7256C211.792 57.7256 212.671 58.1018 213.319 58.7714C213.967 59.441 214.331 60.3493 214.331 61.2963" fill="#F2F2F2"/>
<path d="M210.876 61.2962C210.851 61.2962 210.827 61.2861 210.81 61.268C210.792 61.2499 210.782 61.2253 210.782 61.1997V59.3179C210.782 59.2923 210.792 59.2678 210.81 59.2497C210.827 59.2316 210.851 59.2214 210.876 59.2214C210.901 59.2214 210.924 59.2316 210.942 59.2497C210.959 59.2678 210.969 59.2923 210.969 59.3179V61.1997C210.969 61.2253 210.959 61.2499 210.942 61.268C210.924 61.2861 210.901 61.2962 210.876 61.2962Z" fill="#CCCCCC"/>
<path d="M210.876 60.6496C210.854 60.6496 210.832 60.6414 210.815 60.6263L209.695 59.6324C209.676 59.6157 209.664 59.592 209.663 59.5666C209.661 59.5411 209.669 59.516 209.685 59.4966C209.701 59.4773 209.724 59.4653 209.748 59.4633C209.773 59.4613 209.797 59.4694 209.816 59.4859L210.937 60.4799C210.951 60.4927 210.962 60.5098 210.966 60.5289C210.971 60.548 210.97 60.5681 210.964 60.5866C210.957 60.6051 210.945 60.6211 210.929 60.6323C210.914 60.6436 210.895 60.6496 210.876 60.6496V60.6496Z" fill="#CCCCCC"/>
<path d="M105.153 28.9657C107.423 25.6078 110.173 15.7367 106.922 13.3893C103.67 11.0419 95.648 17.107 93.378 20.4649C92.2879 22.0785 91.8626 24.0735 92.1957 26.0111C92.5287 27.9487 93.5927 29.6703 95.1538 30.7973C96.7149 31.9243 98.6452 32.3645 100.52 32.021C102.395 31.6775 104.062 30.5785 105.153 28.9657Z" fill="#F2F2F2"/>
<path d="M90.1574 38.1879C90.1395 38.1751 90.1274 38.1554 90.1236 38.1332C90.1198 38.111 90.1246 38.0882 90.1371 38.0698L99.7385 23.8669C99.751 23.8485 99.77 23.8359 99.7915 23.832C99.8129 23.828 99.835 23.8331 99.8529 23.846C99.8707 23.8588 99.8829 23.8785 99.8867 23.9007C99.8905 23.9229 99.8856 23.9457 99.8732 23.9641L90.2718 38.167C90.2593 38.1854 90.2402 38.198 90.2188 38.2019C90.1973 38.2059 90.1753 38.2008 90.1574 38.1879Z" fill="#CCCCCC"/>
<path d="M98.012 26.5691C98.0024 26.5622 97.9943 26.5532 97.9883 26.5427C97.9823 26.5322 97.9786 26.5205 97.9773 26.5084L97.3193 20.0286C97.317 20.0062 97.3234 19.9838 97.3372 19.9663C97.3509 19.9488 97.3707 19.9377 97.3924 19.9353C97.4141 19.933 97.4358 19.9396 97.4527 19.9538C97.4696 19.968 97.4804 19.9885 97.4827 20.0109L98.1407 26.4907C98.1424 26.5068 98.1395 26.5232 98.1324 26.5377C98.1253 26.5522 98.1143 26.5643 98.1008 26.5726C98.0872 26.5809 98.0716 26.5849 98.0559 26.5843C98.0402 26.5837 98.025 26.5784 98.012 26.5691L98.012 26.5691Z" fill="#CCCCCC"/>
<path d="M96.4377 28.8979C96.4243 28.8883 96.4141 28.8749 96.4082 28.8592C96.4023 28.8436 96.401 28.8265 96.4045 28.8101C96.408 28.7937 96.4161 28.7788 96.4279 28.7671C96.4396 28.7555 96.4544 28.7478 96.4703 28.7448L99.7384 28.1455C99.7491 28.1435 99.76 28.1437 99.7706 28.1461C99.7812 28.1484 99.7912 28.1529 99.8001 28.1593C99.809 28.1657 99.8166 28.1738 99.8224 28.1832C99.8282 28.1927 99.8322 28.2032 99.8341 28.2142C99.836 28.2252 99.8358 28.2365 99.8334 28.2474C99.8311 28.2583 99.8266 28.2687 99.8204 28.2778C99.8142 28.287 99.8063 28.2947 99.7971 28.3007C99.788 28.3067 99.7778 28.3108 99.7671 28.3127L96.499 28.9119C96.4884 28.9139 96.4775 28.9137 96.467 28.9113C96.4565 28.9089 96.4465 28.9043 96.4377 28.8979Z" fill="#CCCCCC"/>
<path d="M83.8433 33.4922C84.2995 32.8206 84.9948 32.3635 85.7767 32.221C86.5587 32.0786 87.3633 32.2625 88.0142 32.7324C88.6651 33.2023 89.1091 33.9199 89.2487 34.7276C89.3883 35.5353 89.2121 36.3673 88.7589 37.041" fill="#F2F2F2"/>
<path d="M86.301 35.2666C86.2834 35.2539 86.2714 35.2344 86.2676 35.2126C86.2638 35.1907 86.2687 35.1682 86.281 35.15L87.1859 33.8114C87.1983 33.7933 87.217 33.781 87.2381 33.7772C87.2592 33.7734 87.2809 33.7784 87.2985 33.7911C87.316 33.8038 87.328 33.8231 87.3318 33.8449C87.3356 33.8666 87.3309 33.8891 87.3188 33.9073L86.4138 35.2459C86.4015 35.2641 86.3827 35.2765 86.3615 35.2804C86.3404 35.2843 86.3186 35.2793 86.301 35.2666Z" fill="#CCCCCC"/>
<path d="M86.6119 34.8066C86.596 34.7952 86.5846 34.7782 86.5798 34.7588L86.2607 33.4763C86.258 33.4656 86.2574 33.4545 86.2588 33.4436C86.2603 33.4327 86.2638 33.4222 86.2692 33.4127C86.2746 33.4032 86.2818 33.3949 86.2903 33.3882C86.2989 33.3816 86.3086 33.3768 86.3189 33.374C86.3292 33.3713 86.34 33.3707 86.3506 33.3722C86.3611 33.3738 86.3713 33.3775 86.3804 33.3831C86.3896 33.3887 86.3976 33.3962 86.404 33.405C86.4104 33.4139 86.415 33.4239 86.4176 33.4346L86.7368 34.7171C86.7409 34.7337 86.74 34.7512 86.7343 34.7672C86.7285 34.7832 86.7181 34.7971 86.7045 34.8068C86.6909 34.8165 86.6747 34.8217 86.6582 34.8217C86.6416 34.8217 86.6254 34.8164 86.6119 34.8066Z" fill="#CCCCCC"/>
<path d="M91.416 38.9593C91.6411 38.6247 91.9278 38.3393 92.2598 38.1194C92.5918 37.8995 92.9624 37.7495 93.3506 37.6778C93.7388 37.6062 94.1368 37.6144 94.5219 37.7019C94.907 37.7894 95.2716 37.9546 95.5948 38.188C95.9181 38.4213 96.1936 38.7183 96.4056 39.0619C96.6177 39.4054 96.762 39.7888 96.8305 40.1901C96.8989 40.5914 96.8901 41.0027 96.8045 41.4005C96.7189 41.7983 96.5582 42.1747 96.3317 42.5082" fill="#F2F2F2"/>
<path d="M93.8737 40.7338C93.8561 40.7211 93.8441 40.7016 93.8404 40.6798C93.8366 40.6579 93.8414 40.6354 93.8537 40.6172L94.7586 39.2785C94.771 39.2603 94.7898 39.2479 94.8109 39.2441C94.8321 39.2402 94.8539 39.2451 94.8715 39.2579C94.8891 39.2706 94.9011 39.29 94.9049 39.3119C94.9086 39.3337 94.9038 39.3563 94.8915 39.3745L93.9866 40.7131C93.9743 40.7313 93.9555 40.7437 93.9343 40.7476C93.9131 40.7515 93.8913 40.7465 93.8737 40.7338Z" fill="#CCCCCC"/>
<path d="M94.1847 40.2738C94.1688 40.2623 94.1575 40.2454 94.1527 40.226L93.8335 38.9435C93.8283 38.922 93.8315 38.8993 93.8424 38.8803C93.8534 38.8612 93.8712 38.8475 93.8919 38.842C93.9127 38.8365 93.9347 38.8396 93.9531 38.8509C93.9716 38.8621 93.985 38.8804 93.9905 38.9018L94.3096 40.1843C94.3138 40.2009 94.3129 40.2183 94.3071 40.2344C94.3013 40.2504 94.2909 40.2642 94.2773 40.274C94.2637 40.2837 94.2475 40.2889 94.231 40.2889C94.2144 40.2888 94.1983 40.2836 94.1847 40.2738Z" fill="#CCCCCC"/>
<path d="M151.726 102.211C153.552 103.945 155.366 105.69 157.169 107.448C156.706 107.475 156.226 107.496 155.733 107.512C155.037 107.536 154.312 107.547 153.552 107.547C145.213 107.547 140.98 106.132 136.891 104.762C133.007 103.464 129.34 102.238 121.809 102.238C114.276 102.238 110.608 103.464 106.727 104.762C102.636 106.132 98.403 107.547 90.0634 107.547C81.7211 107.547 77.4909 106.132 73.3995 104.762C69.6059 103.493 66.0178 102.294 58.8313 102.241C58.6618 102.238 58.4923 102.238 58.3176 102.238V96.9295C58.4897 96.9295 58.6618 96.9295 58.8313 96.9322C66.8346 96.9879 70.9749 98.3734 74.9815 99.7112C78.865 101.012 82.5328 102.238 90.0634 102.238C97.594 102.238 101.262 101.012 105.145 99.7112C109.237 98.3443 113.467 96.9295 121.809 96.9295C130.149 96.9295 134.379 98.3443 138.47 99.7112C141.714 100.797 144.809 101.832 150.131 102.142C150.642 102.174 151.171 102.196 151.726 102.211Z" fill="#F78065"/>
<path d="M217.046 102.238V107.547C208.704 107.547 204.474 106.132 200.382 104.762C196.499 103.464 192.831 102.238 185.301 102.238C177.767 102.238 174.1 103.464 170.216 104.762C170.006 104.834 169.792 104.903 169.579 104.975C169.215 105.097 168.845 105.219 168.47 105.338C167.052 103.902 165.629 102.479 164.201 101.068C164.599 100.967 164.984 100.86 165.364 100.752C166.497 100.428 167.558 100.072 168.637 99.7112C172.728 98.3443 176.958 96.9295 185.301 96.9295C193.643 96.9295 197.873 98.3443 201.965 99.7112C205.848 101.012 209.516 102.238 217.046 102.238Z" fill="#F78065"/>
<path d="M103.54 61.4131C89.1616 50.5917 74.0336 40.3304 58.5794 30.9158L57.8038 30.4433V62.3739H104.816L103.54 61.4131ZM58.8311 61.3122V32.3039C73.5329 41.2912 87.9288 51.0429 101.657 61.3122H58.8311ZM176.306 127.034C170.088 120.353 163.708 113.825 157.168 107.448C155.365 105.689 153.551 103.943 151.726 102.211C140.587 91.637 129.081 81.58 117.209 72.0407L117.07 71.9292H57.8038V127.934H177.143L176.306 127.034ZM58.8311 126.872V72.9909H116.718C128.166 82.1932 139.303 91.9104 150.131 102.142C152.011 103.918 153.878 105.708 155.733 107.512C162.215 113.808 168.547 120.261 174.726 126.872H58.8311ZM176.306 127.034C170.088 120.353 163.708 113.825 157.168 107.448C155.365 105.689 153.551 103.943 151.726 102.211C140.587 91.637 129.081 81.58 117.209 72.0407L117.07 71.9292H57.8038V127.934H177.143L176.306 127.034ZM58.8311 126.872V72.9909H116.718C128.166 82.1932 139.303 91.9104 150.131 102.142C152.011 103.918 153.878 105.708 155.733 107.512C162.215 113.808 168.547 120.261 174.726 126.872H58.8311ZM103.54 61.4131C89.1616 50.5917 74.0336 40.3304 58.5794 30.9158L57.8038 30.4433V62.3739H104.816L103.54 61.4131ZM58.8311 61.3122V32.3039C73.5329 41.2912 87.9288 51.0429 101.657 61.3122H58.8311ZM103.54 61.4131C89.1616 50.5917 74.0336 40.3304 58.5794 30.9158L57.8038 30.4433V62.3739H104.816L103.54 61.4131ZM58.8311 61.3122V32.3039C73.5329 41.2912 87.9288 51.0429 101.657 61.3122H58.8311ZM176.306 127.034C170.088 120.353 163.708 113.825 157.168 107.448C155.365 105.689 153.551 103.943 151.726 102.211C140.587 91.637 129.081 81.58 117.209 72.0407L117.07 71.9292H57.8038V127.934H177.143L176.306 127.034ZM58.8311 126.872V72.9909H116.718C128.166 82.1932 139.303 91.9104 150.131 102.142C152.011 103.918 153.878 105.708 155.733 107.512C162.215 113.808 168.547 120.261 174.726 126.872H58.8311ZM6.9541 137.489V138.551H47.5301V153.945H6.9541V155.007H48.5574V137.489H6.9541ZM57.8038 164.562V175.32L58.8311 175.222V165.624H217.046V164.562H57.8038ZM217.046 138.551V137.489H57.8038V155.007H217.046V153.945H58.8311V138.551H217.046ZM121.103 61.3122C101.393 45.6002 80.5782 31.4271 58.8311 18.9106V8.1609L57.8038 8.25911V19.092L58.5949 19.9909C80.2534 32.4733 100.984 46.6028 120.615 62.2624L120.753 62.3739H217.046V61.3122H121.103ZM47.5301 61.3122H6.9541V62.3739H48.5574V9.14563L47.5301 9.24383V61.3122ZM217.046 71.9292H132.393L133.5 72.8688C143.923 81.7313 154.156 91.1309 164.201 101.068C165.629 102.48 167.052 103.903 168.47 105.338C175.528 112.465 182.448 119.824 189.23 127.416L190.077 127.934H217.046V126.872H190.142C183.433 119.355 176.579 112.056 169.579 104.975C168.179 103.557 166.774 102.15 165.364 100.752C155.537 91.0079 145.501 81.7543 135.255 72.9909H217.046V71.9292ZM6.9541 164.562V165.624H47.5301V176.305L48.5574 176.207V164.562H6.9541ZM6.9541 71.9292V72.9909H47.5301V126.872H6.9541V127.934H48.5574V71.9292H6.9541ZM103.54 61.4131C89.1616 50.5917 74.0336 40.3304 58.5794 30.9158L57.8038 30.4433V62.3739H104.816L103.54 61.4131ZM58.8311 61.3122V32.3039C73.5329 41.2912 87.9288 51.0429 101.657 61.3122H58.8311ZM176.306 127.034C170.088 120.353 163.708 113.825 157.168 107.448C155.365 105.689 153.551 103.943 151.726 102.211C140.587 91.637 129.081 81.58 117.209 72.0407L117.07 71.9292H57.8038V127.934H177.143L176.306 127.034ZM58.8311 126.872V72.9909H116.718C128.166 82.1932 139.303 91.9104 150.131 102.142C152.011 103.918 153.878 105.708 155.733 107.512C162.215 113.808 168.547 120.261 174.726 126.872H58.8311ZM103.54 61.4131C89.1616 50.5917 74.0336 40.3304 58.5794 30.9158L57.8038 30.4433V62.3739H104.816L103.54 61.4131ZM58.8311 61.3122V32.3039C73.5329 41.2912 87.9288 51.0429 101.657 61.3122H58.8311ZM176.306 127.034C170.088 120.353 163.708 113.825 157.168 107.448C155.365 105.689 153.551 103.943 151.726 102.211C140.587 91.637 129.081 81.58 117.209 72.0407L117.07 71.9292H57.8038V127.934H177.143L176.306 127.034ZM58.8311 126.872V72.9909H116.718C128.166 82.1932 139.303 91.9104 150.131 102.142C152.011 103.918 153.878 105.708 155.733 107.512C162.215 113.808 168.547 120.261 174.726 126.872H58.8311Z" fill="#3F3D56"/>
<path d="M130.41 97.517C130.41 92.8424 134.077 81.7499 138.601 81.7499C143.124 81.7499 146.791 92.8424 146.791 97.517C146.791 99.7618 145.928 101.915 144.392 103.502C142.856 105.089 140.773 105.981 138.601 105.981C136.428 105.981 134.345 105.089 132.809 103.502C131.273 101.915 130.41 99.7618 130.41 97.517Z" fill="#F2F2F2"/>
<path d="M138.601 118.109C138.592 118.109 138.583 118.107 138.575 118.104C138.567 118.1 138.559 118.095 138.553 118.089C138.547 118.082 138.542 118.075 138.538 118.066C138.535 118.058 138.533 118.049 138.533 118.039V88.8582C138.533 88.8397 138.54 88.822 138.553 88.809C138.566 88.7959 138.583 88.7886 138.601 88.7886C138.618 88.7886 138.636 88.7959 138.648 88.809C138.661 88.822 138.668 88.8397 138.668 88.8582V118.039C138.668 118.049 138.666 118.058 138.663 118.066C138.659 118.075 138.654 118.082 138.648 118.089C138.642 118.095 138.635 118.1 138.626 118.104C138.618 118.107 138.609 118.109 138.601 118.109Z" fill="#3F3D56"/>
<path d="M138.601 94.4918C138.592 94.4919 138.583 94.4901 138.575 94.4866C138.567 94.4831 138.559 94.4779 138.553 94.4715L135.311 91.1214C135.305 91.115 135.3 91.1073 135.297 91.0988C135.293 91.0904 135.292 91.0813 135.292 91.0722C135.292 91.0631 135.293 91.054 135.297 91.0456C135.3 91.0371 135.305 91.0295 135.311 91.023C135.317 91.0165 135.325 91.0114 135.333 91.0079C135.341 91.0044 135.35 91.0026 135.359 91.0026C135.368 91.0026 135.376 91.0044 135.385 91.0079C135.393 91.0114 135.4 91.0165 135.406 91.023L138.648 94.373C138.658 94.3828 138.664 94.3952 138.667 94.4087C138.669 94.4222 138.668 94.4362 138.663 94.4489C138.658 94.4616 138.649 94.4725 138.638 94.4801C138.627 94.4878 138.614 94.4918 138.601 94.4918Z" fill="#3F3D56"/>
<path d="M138.601 100.291C138.587 100.291 138.574 100.287 138.563 100.28C138.552 100.272 138.543 100.261 138.538 100.248C138.533 100.236 138.532 100.222 138.534 100.208C138.537 100.195 138.544 100.182 138.553 100.173L143.982 94.5623C143.988 94.5559 143.995 94.5507 144.004 94.5472C144.012 94.5437 144.021 94.5419 144.029 94.5419C144.038 94.5419 144.047 94.5437 144.055 94.5472C144.063 94.5507 144.071 94.5558 144.077 94.5623C144.083 94.5688 144.088 94.5764 144.092 94.5849C144.095 94.5933 144.097 94.6024 144.097 94.6115C144.097 94.6207 144.095 94.6297 144.092 94.6382C144.088 94.6466 144.083 94.6543 144.077 94.6607L138.648 100.271C138.642 100.278 138.634 100.283 138.626 100.286C138.618 100.29 138.609 100.291 138.601 100.291Z" fill="#3F3D56"/>
<path d="M176.334 73.6287C176.334 68.9542 180.001 57.8616 184.524 57.8616C189.048 57.8616 192.715 68.9542 192.715 73.6287C192.713 75.8726 191.85 78.0242 190.314 79.6104C188.778 81.1966 186.696 82.0876 184.524 82.0876C182.353 82.0876 180.271 81.1966 178.735 79.6104C177.199 78.0242 176.335 75.8726 176.334 73.6287Z" fill="#F78065"/>
<path d="M184.524 94.2208C184.515 94.2208 184.507 94.219 184.498 94.2155C184.49 94.2121 184.483 94.2069 184.477 94.2005C184.47 94.194 184.465 94.1863 184.462 94.1779C184.459 94.1694 184.457 94.1604 184.457 94.1512V64.97C184.457 64.9515 184.464 64.9338 184.477 64.9208C184.489 64.9077 184.506 64.9004 184.524 64.9004C184.542 64.9004 184.559 64.9077 184.572 64.9208C184.584 64.9338 184.591 64.9515 184.591 64.97V94.1512C184.591 94.1604 184.59 94.1694 184.586 94.1779C184.583 94.1863 184.578 94.194 184.572 94.2005C184.565 94.2069 184.558 94.2121 184.55 94.2155C184.542 94.219 184.533 94.2208 184.524 94.2208Z" fill="#3F3D56"/>
<path d="M184.524 70.6036C184.515 70.6036 184.507 70.6018 184.498 70.5983C184.49 70.5948 184.483 70.5897 184.477 70.5832L181.235 67.2332C181.222 67.2201 181.215 67.2024 181.215 67.184C181.215 67.1655 181.222 67.1478 181.235 67.1348C181.247 67.1217 181.265 67.1144 181.282 67.1144C181.3 67.1144 181.317 67.1217 181.33 67.1348L184.572 70.4848C184.581 70.4945 184.588 70.5069 184.59 70.5204C184.593 70.5339 184.592 70.5479 184.586 70.5607C184.581 70.5734 184.573 70.5842 184.562 70.5919C184.551 70.5995 184.538 70.6036 184.524 70.6036H184.524Z" fill="#3F3D56"/>
<path d="M184.524 76.4032C184.511 76.4032 184.498 76.3991 184.487 76.3915C184.476 76.3838 184.467 76.373 184.462 76.3603C184.457 76.3475 184.455 76.3335 184.458 76.32C184.461 76.3065 184.467 76.2941 184.477 76.2844L189.905 70.6741C189.918 70.6612 189.935 70.654 189.953 70.654C189.971 70.6541 189.988 70.6614 190 70.6744C190.013 70.6874 190.02 70.705 190.02 70.7234C190.02 70.7418 190.013 70.7594 190.001 70.7725L184.572 76.3828C184.566 76.3893 184.558 76.3944 184.55 76.3979C184.542 76.4014 184.533 76.4032 184.524 76.4032Z" fill="#3F3D56"/>
<path d="M75.7781 76.0176C75.7781 71.343 79.445 60.2505 83.9684 60.2505C88.4919 60.2505 92.1588 71.343 92.1588 76.0176C92.1588 78.2624 91.2959 80.4153 89.7599 82.0026C88.2239 83.5899 86.1407 84.4816 83.9684 84.4816C81.7962 84.4816 79.713 83.5899 78.177 82.0026C76.641 80.4153 75.7781 78.2624 75.7781 76.0176Z" fill="#F78065"/>
<path d="M83.9685 96.6096C83.9596 96.6096 83.9509 96.6078 83.9427 96.6044C83.9345 96.6009 83.9271 96.5957 83.9208 96.5893C83.9146 96.5828 83.9096 96.5751 83.9062 96.5667C83.9029 96.5582 83.9011 96.5492 83.9011 96.54V67.3588C83.9011 67.3403 83.9082 67.3226 83.9209 67.3096C83.9335 67.2965 83.9506 67.2892 83.9685 67.2892C83.9863 67.2892 84.0035 67.2965 84.0161 67.3096C84.0287 67.3226 84.0358 67.3403 84.0358 67.3588V96.5401C84.0358 96.5492 84.0341 96.5582 84.0307 96.5667C84.0273 96.5751 84.0223 96.5828 84.0161 96.5893C84.0098 96.5957 84.0024 96.6009 83.9942 96.6044C83.9861 96.6078 83.9773 96.6096 83.9685 96.6096Z" fill="#3F3D56"/>
<path d="M83.9683 72.9924C83.9594 72.9924 83.9507 72.9906 83.9425 72.9871C83.9343 72.9836 83.9269 72.9785 83.9206 72.972L80.6789 69.622C80.6726 69.6155 80.6677 69.6079 80.6643 69.5994C80.6609 69.591 80.6592 69.5819 80.6592 69.5728C80.6592 69.5636 80.6609 69.5546 80.6643 69.5461C80.6677 69.5377 80.6727 69.53 80.6789 69.5236C80.6852 69.5171 80.6926 69.512 80.7008 69.5085C80.7089 69.505 80.7177 69.5032 80.7265 69.5032C80.7354 69.5032 80.7441 69.505 80.7523 69.5085C80.7605 69.512 80.7679 69.5171 80.7741 69.5236L84.0159 72.8736C84.0253 72.8833 84.0317 72.8957 84.0343 72.9092C84.0369 72.9227 84.0356 72.9367 84.0305 72.9495C84.0254 72.9622 84.0168 72.973 84.0057 72.9807C83.9946 72.9883 83.9816 72.9924 83.9683 72.9924Z" fill="#3F3D56"/>
<path d="M83.9685 78.792C83.9552 78.792 83.9421 78.788 83.9311 78.7803C83.92 78.7727 83.9114 78.7618 83.9063 78.7491C83.9012 78.7364 83.8998 78.7224 83.9024 78.7089C83.905 78.6954 83.9114 78.683 83.9208 78.6732L89.3497 73.0629C89.3624 73.0499 89.3795 73.0426 89.3973 73.0426C89.4151 73.0426 89.4322 73.05 89.4449 73.063C89.4575 73.076 89.4646 73.0937 89.4646 73.1121C89.4646 73.1306 89.4576 73.1483 89.445 73.1613L84.0161 78.7716C84.0098 78.7781 84.0024 78.7833 83.9943 78.7867C83.9861 78.7902 83.9773 78.792 83.9685 78.792Z" fill="#3F3D56"/>
<path d="M151.343 52.6976C146.691 52.6976 142.144 51.2721 138.276 48.6013C134.408 45.9305 131.393 42.1344 129.613 37.693C127.833 33.2516 127.367 28.3644 128.275 23.6495C129.182 18.9345 131.422 14.6036 134.712 11.2043C138.001 7.80503 142.192 5.49008 146.754 4.55222C151.317 3.61436 156.046 4.09571 160.344 5.93539C164.642 7.77507 168.315 10.8905 170.899 14.8876C173.484 18.8847 174.863 23.5841 174.863 28.3914C174.856 34.8356 172.376 41.0137 167.967 45.5704C163.557 50.1272 157.579 52.6903 151.343 52.6976ZM151.343 4.41145C146.754 4.41145 142.267 5.81785 138.451 8.4528C134.635 11.0877 131.661 14.8329 129.905 19.2147C128.149 23.5964 127.689 28.418 128.584 33.0697C129.48 37.7213 131.69 41.9941 134.935 45.3478C138.18 48.7015 142.315 50.9853 146.816 51.9106C151.317 52.8359 155.983 52.361 160.223 50.546C164.463 48.731 168.087 45.6574 170.637 41.714C173.187 37.7705 174.548 33.1342 174.548 28.3914C174.541 22.0337 172.094 15.9385 167.743 11.443C163.393 6.9474 157.495 4.41864 151.343 4.41146V4.41145Z" fill="#CCCCCC"/>
<path d="M151.343 26.597C151.301 26.597 151.261 26.5798 151.232 26.5492C151.202 26.5186 151.185 26.4771 151.185 26.4338V4.2483C151.185 4.20504 151.202 4.16354 151.232 4.13295C151.261 4.10236 151.301 4.08517 151.343 4.08517C151.385 4.08517 151.425 4.10236 151.455 4.13295C151.484 4.16354 151.501 4.20504 151.501 4.2483V26.4338C151.501 26.4771 151.484 26.5186 151.455 26.5492C151.425 26.5798 151.385 26.597 151.343 26.597Z" fill="#CCCCCC"/>
<path d="M174.706 28.5545H153.237C153.196 28.5545 153.155 28.5373 153.126 28.5067C153.096 28.4761 153.08 28.4347 153.08 28.3914C153.08 28.3481 153.096 28.3066 153.126 28.276C153.155 28.2454 153.196 28.2283 153.237 28.2283H174.706C174.748 28.2283 174.788 28.2454 174.817 28.276C174.847 28.3066 174.863 28.3481 174.863 28.3914C174.863 28.4347 174.847 28.4761 174.817 28.5067C174.788 28.5373 174.748 28.5545 174.706 28.5545Z" fill="#CCCCCC"/>
<path d="M149.449 28.5545H127.991C127.949 28.5545 127.909 28.5373 127.879 28.5067C127.85 28.4761 127.833 28.4347 127.833 28.3914C127.833 28.3481 127.85 28.3066 127.879 28.276C127.909 28.2454 127.949 28.2283 127.991 28.2283H149.449C149.491 28.2283 149.531 28.2454 149.56 28.276C149.59 28.3066 149.607 28.3481 149.607 28.3914C149.607 28.4347 149.59 28.4761 149.56 28.5067C149.531 28.5373 149.491 28.5545 149.449 28.5545Z" fill="#CCCCCC"/>
<path d="M151.343 52.6976C151.301 52.6976 151.261 52.6804 151.232 52.6498C151.202 52.6192 151.185 52.5777 151.185 52.5345V30.3489C151.185 30.3057 151.202 30.2642 151.232 30.2336C151.261 30.203 151.301 30.1858 151.343 30.1858C151.385 30.1858 151.425 30.203 151.455 30.2336C151.484 30.2642 151.501 30.3057 151.501 30.3489V52.5345C151.501 52.5777 151.484 52.6192 151.455 52.6498C151.425 52.6804 151.385 52.6976 151.343 52.6976Z" fill="#CCCCCC"/>
<path d="M152.735 27.229C152.704 27.2289 152.673 27.2194 152.647 27.2015C152.621 27.1835 152.601 27.1581 152.589 27.1282C152.577 27.0984 152.574 27.0656 152.58 27.034C152.586 27.0024 152.601 26.9733 152.623 26.9505L167.737 11.3319C167.767 11.3015 167.807 11.2845 167.848 11.2846C167.89 11.2847 167.93 11.3019 167.96 11.3324C167.989 11.3629 168.006 11.4042 168.006 11.4474C168.006 11.4905 167.99 11.532 167.96 11.5626L152.847 27.1812C152.832 27.1963 152.815 27.2084 152.795 27.2166C152.776 27.2248 152.756 27.229 152.735 27.229Z" fill="#CCCCCC"/>
<path d="M149.951 27.229C149.931 27.229 149.91 27.2248 149.891 27.2166C149.872 27.2084 149.854 27.1963 149.84 27.1812L134.726 11.5626C134.697 11.532 134.68 11.4905 134.68 11.4474C134.68 11.4042 134.697 11.3629 134.727 11.3324C134.756 11.3019 134.796 11.2847 134.838 11.2846C134.88 11.2845 134.92 11.3015 134.949 11.3319L150.063 26.9505C150.085 26.9733 150.1 27.0024 150.106 27.034C150.112 27.0656 150.109 27.0984 150.097 27.1282C150.085 27.1581 150.065 27.1835 150.039 27.2015C150.013 27.2194 149.983 27.2289 149.951 27.229Z" fill="#CCCCCC"/>
<path d="M167.849 45.4986C167.828 45.4987 167.807 45.4945 167.788 45.4863C167.769 45.4781 167.752 45.466 167.737 45.4509L152.623 29.8323C152.594 29.8017 152.578 29.7602 152.578 29.7171C152.578 29.6739 152.594 29.6326 152.624 29.6021C152.653 29.5715 152.693 29.5544 152.735 29.5543C152.777 29.5542 152.817 29.5712 152.847 29.6016L167.96 45.2202C167.982 45.243 167.997 45.2721 168.003 45.3037C168.009 45.3353 168.006 45.3681 167.994 45.3979C167.982 45.4277 167.962 45.4532 167.936 45.4711C167.91 45.4891 167.88 45.4986 167.849 45.4986V45.4986Z" fill="#CCCCCC"/>
<path d="M134.838 45.4987C134.807 45.4987 134.776 45.4891 134.75 45.4712C134.724 45.4532 134.704 45.4278 134.692 45.398C134.68 45.3682 134.677 45.3354 134.683 45.3037C134.689 45.2721 134.704 45.243 134.726 45.2202L149.84 29.6016C149.869 29.5711 149.909 29.5539 149.951 29.5539C149.993 29.5539 150.033 29.5711 150.063 29.6016C150.093 29.6322 150.109 29.6737 150.109 29.717C150.109 29.7602 150.093 29.8017 150.063 29.8323L134.949 45.4509C134.935 45.466 134.917 45.4781 134.898 45.4863C134.879 45.4945 134.858 45.4987 134.838 45.4987Z" fill="#CCCCCC"/>
<path d="M151.343 45.1121C148.143 45.1121 145.015 44.1314 142.354 42.2941C139.693 40.4568 137.619 37.8454 136.395 34.7901C135.17 31.7348 134.85 28.3728 135.474 25.1293C136.098 21.8858 137.639 18.9065 139.902 16.568C142.165 14.2296 145.048 12.6371 148.187 11.9919C151.325 11.3468 154.578 11.6779 157.535 12.9434C160.491 14.209 163.018 16.3521 164.796 19.1018C166.574 21.8515 167.523 25.0843 167.523 28.3914C167.518 32.8244 165.812 37.0745 162.779 40.2092C159.746 43.3438 155.633 45.1071 151.343 45.1121ZM151.343 11.9969C148.205 11.9969 145.138 12.9584 142.529 14.7599C139.92 16.5613 137.887 19.1218 136.686 22.1175C135.486 25.1132 135.171 28.4096 135.784 31.5898C136.396 34.77 137.907 37.6912 140.125 39.984C142.344 42.2768 145.171 43.8383 148.248 44.4708C151.326 45.1034 154.515 44.7788 157.414 43.5379C160.313 42.297 162.791 40.1957 164.534 37.4997C166.277 34.8036 167.207 31.6339 167.207 28.3914C167.203 24.0448 165.53 19.8777 162.556 16.8042C159.582 13.7307 155.549 12.0018 151.343 11.9969Z" fill="#CCCCCC"/>
<path d="M151.343 30.3489C152.389 30.3489 153.238 29.4725 153.238 28.3914C153.238 27.3103 152.389 26.4338 151.343 26.4338C150.297 26.4338 149.449 27.3103 149.449 28.3914C149.449 29.4725 150.297 30.3489 151.343 30.3489Z" fill="#3F3D56"/>
<path d="M144.01 61.4569L142.346 61.5067L150.468 27.6256L151.978 28.1016L144.01 61.4569Z" fill="#3F3D56"/>
<path d="M158.677 61.4569L160.341 61.5067L152.218 27.6256L150.708 28.1016L158.677 61.4569Z" fill="#3F3D56"/>
<path d="M153.869 9.14217H148.66V12.0785H153.869V9.14217Z" fill="#CCCCCC"/>
<path d="M151.027 9.79468H148.975V12.0785H151.027V9.79468Z" fill="white"/>
<path d="M153.553 9.79468H151.501V12.0785H153.553V9.79468Z" fill="white"/>
<path d="M151.264 15.2595C150.469 15.2586 149.707 14.9317 149.145 14.3507C148.582 13.7696 148.266 12.9818 148.265 12.1601V12.0785C148.265 11.8839 148.34 11.6973 148.473 11.5597C148.607 11.4221 148.787 11.3446 148.975 11.3444H153.553C153.742 11.3446 153.922 11.4221 154.055 11.5597C154.188 11.6973 154.263 11.8839 154.264 12.0785V12.1601C154.263 12.9818 153.946 13.7696 153.384 14.3507C152.822 14.9317 152.06 15.2586 151.264 15.2595Z" fill="#CCCCCC"/>
<path d="M153.674 9.87624H148.855C148.788 9.87624 148.721 9.85848 148.663 9.82462C148.604 9.79077 148.555 9.74196 148.519 9.68282C148.484 9.62368 148.464 9.55618 148.461 9.48673C148.458 9.41728 148.472 9.34819 148.502 9.28601L149.449 7.32846C149.482 7.26056 149.532 7.20345 149.594 7.1636C149.657 7.12376 149.729 7.10278 149.802 7.10305H152.727C152.8 7.10278 152.872 7.12376 152.934 7.1636C152.997 7.20345 153.047 7.26056 153.08 7.32846L154.027 9.28601C154.057 9.34819 154.071 9.41728 154.068 9.48673C154.065 9.55618 154.045 9.62368 154.01 9.68282C153.974 9.74196 153.925 9.79077 153.866 9.82462C153.807 9.85848 153.741 9.87624 153.674 9.87624H153.674Z" fill="#F78065"/>
<path d="M167.918 15.6673H162.709V18.6037H167.918V15.6673Z" fill="#CCCCCC"/>
<path d="M165.077 16.3198H163.024V18.6036H165.077V16.3198Z" fill="white"/>
<path d="M167.602 16.3198H165.55V18.6036H167.602V16.3198Z" fill="white"/>
<path d="M165.313 21.7847C164.518 21.7837 163.756 21.4569 163.193 20.8758C162.631 20.2948 162.315 19.5069 162.314 18.6852V18.6036C162.314 18.409 162.389 18.2224 162.522 18.0848C162.655 17.9472 162.836 17.8698 163.024 17.8696H167.602C167.79 17.8698 167.971 17.9472 168.104 18.0848C168.237 18.2224 168.312 18.409 168.312 18.6036V18.6852C168.312 19.5069 167.995 20.2948 167.433 20.8758C166.871 21.4569 166.108 21.7837 165.313 21.7847Z" fill="#CCCCCC"/>
<path d="M163.851 13.7913C163.807 13.7912 163.764 13.8038 163.726 13.8277C163.689 13.8516 163.659 13.8859 163.639 13.9266L162.692 15.8841C162.674 15.9214 162.665 15.9629 162.667 16.0046C162.669 16.0462 162.681 16.0867 162.702 16.1222C162.724 16.1577 162.753 16.187 162.788 16.2073C162.824 16.2276 162.863 16.2383 162.904 16.2383H167.723C167.763 16.2383 167.803 16.2276 167.838 16.2073C167.873 16.187 167.903 16.1577 167.924 16.1222C167.945 16.0867 167.957 16.0462 167.959 16.0046C167.961 15.9629 167.953 15.9214 167.935 15.8841L166.987 13.9266C166.968 13.8859 166.938 13.8516 166.9 13.8277C166.863 13.8038 166.82 13.7912 166.776 13.7913H163.851Z" fill="#F78065"/>
<path d="M173.443 30.3489H168.234V33.2853H173.443V30.3489Z" fill="#CCCCCC"/>
<path d="M170.601 31.0014H168.549V33.2852H170.601V31.0014Z" fill="white"/>
<path d="M173.127 31.0014H171.075V33.2852H173.127V31.0014Z" fill="white"/>
<path d="M170.838 36.4663C170.043 36.4653 169.281 36.1385 168.718 35.5574C168.156 34.9764 167.84 34.1886 167.839 33.3668V33.2853C167.839 33.0906 167.914 32.904 168.047 32.7664C168.18 32.6288 168.361 32.5514 168.549 32.5512H173.127C173.315 32.5514 173.496 32.6288 173.629 32.7664C173.762 32.904 173.837 33.0906 173.837 33.2853V33.3668C173.836 34.1886 173.52 34.9764 172.958 35.5574C172.396 36.1385 171.633 36.4653 170.838 36.4663Z" fill="#CCCCCC"/>
<path d="M173.248 31.083H168.429C168.362 31.083 168.295 31.0653 168.237 31.0314C168.178 30.9975 168.128 30.9487 168.093 30.8896C168.058 30.8305 168.038 30.763 168.035 30.6935C168.032 30.6241 168.046 30.555 168.076 30.4928L169.023 28.5352C169.056 28.4673 169.106 28.4102 169.168 28.3704C169.231 28.3305 169.303 28.3096 169.376 28.3098H172.301C172.374 28.3096 172.446 28.3305 172.508 28.3704C172.571 28.4102 172.621 28.4673 172.654 28.5352L173.601 30.4928C173.631 30.555 173.645 30.6241 173.642 30.6935C173.639 30.763 173.619 30.8305 173.583 30.8896C173.548 30.9487 173.499 30.9975 173.44 31.0314C173.381 31.0653 173.315 31.083 173.248 31.083H173.248Z" fill="#F78065"/>
<path d="M167.602 44.0517H162.393V46.9881H167.602V44.0517Z" fill="#CCCCCC"/>
<path d="M164.761 44.7043H162.709V46.9881H164.761V44.7043Z" fill="white"/>
<path d="M167.286 44.7043H165.234V46.9881H167.286V44.7043Z" fill="white"/>
<path d="M164.998 50.1691C164.202 50.1682 163.44 49.8413 162.878 49.2603C162.315 48.6792 161.999 47.8914 161.998 47.0696V46.9881C161.999 46.7935 162.073 46.6069 162.207 46.4692C162.34 46.3316 162.52 46.2542 162.709 46.254H167.286C167.475 46.2542 167.655 46.3316 167.788 46.4692C167.922 46.6069 167.997 46.7935 167.997 46.9881V47.0696C167.996 47.8914 167.68 48.6792 167.117 49.2603C166.555 49.8413 165.793 50.1682 164.998 50.1691Z" fill="#CCCCCC"/>
<path d="M167.407 44.7858H162.588C162.521 44.7859 162.455 44.7681 162.396 44.7342C162.337 44.7004 162.288 44.6516 162.252 44.5924C162.217 44.5333 162.197 44.4658 162.194 44.3963C162.191 44.3269 162.205 44.2578 162.235 44.1956L163.182 42.2381C163.215 42.1702 163.265 42.1131 163.327 42.0732C163.39 42.0334 163.462 42.0124 163.535 42.0127H166.46C166.533 42.0124 166.605 42.0334 166.668 42.0732C166.73 42.1131 166.78 42.1702 166.813 42.2381L167.76 44.1956C167.79 44.2578 167.804 44.3269 167.801 44.3963C167.798 44.4658 167.778 44.5333 167.743 44.5924C167.707 44.6516 167.658 44.7004 167.599 44.7342C167.54 44.7681 167.474 44.7859 167.407 44.7858H167.407Z" fill="#F78065"/>
<path d="M134.769 18.6037H139.978V15.6673H134.769V18.6037Z" fill="#CCCCCC"/>
<path d="M137.61 18.6037H139.662V16.3199H137.61V18.6037Z" fill="white"/>
<path d="M135.084 18.6037H137.136V16.3199H135.084V18.6037Z" fill="white"/>
<path d="M137.373 21.7847C136.578 21.7837 135.815 21.4569 135.253 20.8758C134.691 20.2948 134.375 19.5069 134.374 18.6852V18.6036C134.374 18.409 134.449 18.2224 134.582 18.0848C134.715 17.9472 134.896 17.8698 135.084 17.8696H139.662C139.85 17.8698 140.031 17.9472 140.164 18.0848C140.297 18.2224 140.372 18.409 140.372 18.6036V18.6852C140.371 19.5069 140.055 20.2948 139.493 20.8758C138.93 21.4569 138.168 21.7837 137.373 21.7847Z" fill="#CCCCCC"/>
<path d="M139.782 16.4014H134.964C134.896 16.4014 134.83 16.3836 134.771 16.3498C134.713 16.3159 134.663 16.2671 134.628 16.208C134.592 16.1488 134.572 16.0813 134.569 16.0119C134.566 15.9424 134.58 15.8733 134.611 15.8112L135.558 13.8536C135.59 13.7857 135.641 13.7286 135.703 13.6888C135.765 13.6489 135.837 13.6279 135.911 13.6282H138.835C138.909 13.6279 138.981 13.6489 139.043 13.6888C139.105 13.7286 139.156 13.7857 139.188 13.8536L140.135 15.8112C140.166 15.8733 140.18 15.9424 140.177 16.0119C140.174 16.0813 140.154 16.1488 140.118 16.208C140.083 16.2671 140.033 16.3159 139.975 16.3498C139.916 16.3836 139.85 16.4014 139.782 16.4014H139.782Z" fill="#F78065"/>
<path d="M129.244 33.2852H134.453V30.3489H129.244V33.2852Z" fill="#CCCCCC"/>
<path d="M132.085 33.2853H134.137V31.0015H132.085V33.2853Z" fill="white"/>
<path d="M129.559 33.2853H131.611V31.0015H129.559V33.2853Z" fill="white"/>
<path d="M131.848 36.4663C131.053 36.4653 130.291 36.1385 129.728 35.5574C129.166 34.9764 128.85 34.1886 128.849 33.3668V33.2853C128.849 33.0906 128.924 32.904 129.057 32.7664C129.19 32.6288 129.371 32.5514 129.559 32.5512H134.137C134.325 32.5514 134.506 32.6288 134.639 32.7664C134.772 32.904 134.847 33.0906 134.847 33.2853V33.3668C134.846 34.1886 134.53 34.9764 133.968 35.5574C133.406 36.1385 132.643 36.4653 131.848 36.4663Z" fill="#CCCCCC"/>
<path d="M134.258 31.083H129.439C129.371 31.083 129.305 31.0653 129.246 31.0314C129.188 30.9975 129.138 30.9487 129.103 30.8896C129.068 30.8305 129.047 30.763 129.044 30.6935C129.041 30.6241 129.056 30.555 129.086 30.4928L130.033 28.5352C130.065 28.4673 130.116 28.4102 130.178 28.3704C130.24 28.3305 130.312 28.3096 130.386 28.3098H133.31C133.384 28.3096 133.456 28.3305 133.518 28.3704C133.58 28.4102 133.631 28.4673 133.663 28.5352L134.611 30.4928C134.641 30.555 134.655 30.6241 134.652 30.6935C134.649 30.763 134.629 30.8305 134.593 30.8896C134.558 30.9487 134.508 30.9975 134.45 31.0314C134.391 31.0653 134.325 31.083 134.258 31.083H134.258Z" fill="#F78065"/>
<path d="M135.084 46.9881H140.293V44.0518H135.084V46.9881Z" fill="#CCCCCC"/>
<path d="M137.926 46.9881H139.978V44.7043H137.926V46.9881Z" fill="white"/>
<path d="M135.4 46.9881H137.452V44.7043H135.4V46.9881Z" fill="white"/>
<path d="M137.689 50.1691C136.894 50.1682 136.131 49.8413 135.569 49.2603C135.007 48.6792 134.69 47.8914 134.689 47.0696V46.9881C134.69 46.7935 134.765 46.6069 134.898 46.4692C135.031 46.3316 135.211 46.2542 135.4 46.254H139.978C140.166 46.2542 140.346 46.3316 140.48 46.4692C140.613 46.6069 140.688 46.7935 140.688 46.9881V47.0696C140.687 47.8914 140.371 48.6792 139.808 49.2603C139.246 49.8413 138.484 50.1682 137.689 50.1691Z" fill="#CCCCCC"/>
<path d="M140.098 44.7858H135.279C135.212 44.7859 135.146 44.7681 135.087 44.7342C135.028 44.7004 134.979 44.6516 134.944 44.5924C134.908 44.5333 134.888 44.4658 134.885 44.3963C134.882 44.3269 134.896 44.2578 134.926 44.1956L135.874 42.2381C135.906 42.1702 135.956 42.1131 136.019 42.0732C136.081 42.0334 136.153 42.0124 136.227 42.0127H139.151C139.225 42.0124 139.297 42.0334 139.359 42.0732C139.421 42.1131 139.472 42.1702 139.504 42.2381L140.451 44.1956C140.481 44.2578 140.496 44.3269 140.493 44.3963C140.49 44.4658 140.469 44.5333 140.434 44.5924C140.399 44.6516 140.349 44.7004 140.291 44.7342C140.232 44.7681 140.166 44.7859 140.098 44.7858H140.098Z" fill="#F78065"/>
<path d="M153.869 50.2507H148.66V53.187H153.869V50.2507Z" fill="#CCCCCC"/>
<path d="M151.027 50.9032H148.975V53.187H151.027V50.9032Z" fill="white"/>
<path d="M153.553 50.9032H151.501V53.187H153.553V50.9032Z" fill="white"/>
<path d="M148.975 52.6161C148.829 52.6162 148.688 52.6764 148.585 52.7835C148.481 52.8905 148.423 53.0356 148.423 53.187V53.2686C148.422 53.6544 148.496 54.0366 148.638 54.3932C148.781 54.7498 148.99 55.0739 149.254 55.3468C149.518 55.6198 149.831 55.8364 150.176 55.9842C150.521 56.1319 150.891 56.208 151.264 56.208C151.638 56.208 152.007 56.1319 152.352 55.9842C152.697 55.8364 153.011 55.6198 153.274 55.3468C153.538 55.0739 153.748 54.7498 153.89 54.3932C154.033 54.0366 154.106 53.6544 154.106 53.2686V53.187C154.105 53.0356 154.047 52.8905 153.944 52.7835C153.84 52.6764 153.7 52.6162 153.553 52.6161H148.975Z" fill="#CCCCCC"/>
<path d="M149.802 48.3747C149.758 48.3745 149.715 48.3871 149.677 48.411C149.64 48.4349 149.61 48.4692 149.59 48.5099L148.643 50.4675C148.625 50.5048 148.616 50.5462 148.618 50.5879C148.62 50.6296 148.632 50.6701 148.653 50.7056C148.674 50.741 148.704 50.7703 148.739 50.7906C148.775 50.811 148.814 50.8216 148.855 50.8216H153.674C153.714 50.8216 153.754 50.811 153.789 50.7906C153.824 50.7703 153.854 50.741 153.875 50.7056C153.896 50.6701 153.908 50.6296 153.91 50.5879C153.912 50.5462 153.903 50.5048 153.885 50.4675L152.938 48.5099C152.919 48.4692 152.889 48.4349 152.851 48.411C152.814 48.3871 152.771 48.3745 152.727 48.3747H149.802Z" fill="#F78065"/>
<path d="M81.7688 90.9608C81.8161 90.9608 81.8614 90.9414 81.8948 90.9069C81.9282 90.8724 81.9469 90.8255 81.9469 90.7767C81.9469 90.7279 81.9282 90.6811 81.8948 90.6466C81.8614 90.612 81.8161 90.5926 81.7688 90.5926H80.0767V89.8564H81.7688C81.8161 89.8564 81.8614 89.837 81.8948 89.8025C81.9282 89.7679 81.9469 89.7211 81.9469 89.6723C81.9469 89.6235 81.9282 89.5767 81.8948 89.5422C81.8614 89.5076 81.8161 89.4882 81.7688 89.4882H67.3414C67.2942 89.4882 67.2489 89.5076 67.2155 89.5422C67.1821 89.5767 67.1633 89.6235 67.1633 89.6723C67.1633 89.7211 67.1821 89.7679 67.2155 89.8025C67.2489 89.837 67.2942 89.8564 67.3414 89.8564H69.0335V90.5926H67.3414C67.2942 90.5926 67.2489 90.612 67.2155 90.6466C67.1821 90.6811 67.1633 90.7279 67.1633 90.7767C67.1633 90.8255 67.1821 90.8724 67.2155 90.9069C67.2489 90.9414 67.2942 90.9608 67.3414 90.9608H69.0335V91.6971H67.3414C67.2942 91.6971 67.2489 91.7164 67.2155 91.751C67.1821 91.7855 67.1633 91.8323 67.1633 91.8811C67.1633 91.9299 67.1821 91.9768 67.2155 92.0113C67.2489 92.0458 67.2942 92.0652 67.3414 92.0652H69.0335V92.8015H67.5196C67.4251 92.8015 67.3345 92.8402 67.2677 92.9093C67.2009 92.9783 67.1633 93.072 67.1633 93.1696C67.1633 93.2672 67.2009 93.3609 67.2677 93.4299C67.3345 93.4989 67.4251 93.5377 67.5196 93.5377H68.9608C68.9503 93.5672 68.9448 93.5983 68.9445 93.6298V96.2067C68.9445 96.2799 68.9726 96.3502 69.0227 96.4019C69.0728 96.4537 69.1408 96.4828 69.2117 96.4828C69.2825 96.4828 69.3505 96.4537 69.4006 96.4019C69.4507 96.3502 69.4788 96.2799 69.4788 96.2067V93.6298C69.4785 93.5983 69.473 93.5672 69.4625 93.5377H79.6478C79.6373 93.5672 79.6317 93.5983 79.6314 93.6298V96.2067C79.6314 96.2799 79.6596 96.3502 79.7097 96.4019C79.7598 96.4537 79.8277 96.4828 79.8986 96.4828C79.9694 96.4828 80.0374 96.4537 80.0875 96.4019C80.1376 96.3502 80.1658 96.2799 80.1658 96.2067V93.6298C80.1655 93.5983 80.1599 93.5672 80.1494 93.5377H81.5907C81.6852 93.5377 81.7758 93.4989 81.8426 93.4299C81.9094 93.3609 81.9469 93.2672 81.9469 93.1696C81.9469 93.072 81.9094 92.9783 81.8426 92.9093C81.7758 92.8402 81.6852 92.8015 81.5907 92.8015H80.0767V92.0652H81.7688C81.8161 92.0652 81.8614 92.0458 81.8948 92.0113C81.9282 91.9768 81.9469 91.9299 81.9469 91.8811C81.9469 91.8323 81.9282 91.7855 81.8948 91.751C81.8614 91.7164 81.8161 91.6971 81.7688 91.6971H80.0767V90.9608H81.7688ZM69.3898 89.8564H79.7205V90.5926H69.3898V89.8564ZM79.7205 92.8015H69.3898V92.0652H79.7205V92.8015ZM79.7205 91.6971H69.3898V90.9608H79.7205V91.6971Z" fill="#3F3D56"/>
<path d="M137.428 112.991C137.476 112.991 137.521 112.972 137.554 112.937C137.588 112.903 137.606 112.856 137.606 112.807C137.606 112.758 137.588 112.711 137.554 112.677C137.521 112.642 137.476 112.623 137.428 112.623H135.736V111.887H137.428C137.476 111.887 137.521 111.867 137.554 111.833C137.588 111.798 137.606 111.751 137.606 111.703C137.606 111.654 137.588 111.607 137.554 111.572C137.521 111.538 137.476 111.518 137.428 111.518H123.001C122.954 111.518 122.908 111.538 122.875 111.572C122.842 111.607 122.823 111.654 122.823 111.703C122.823 111.751 122.842 111.798 122.875 111.833C122.908 111.867 122.954 111.887 123.001 111.887H124.693V112.623H123.001C122.954 112.623 122.908 112.642 122.875 112.677C122.842 112.711 122.823 112.758 122.823 112.807C122.823 112.856 122.842 112.903 122.875 112.937C122.908 112.972 122.954 112.991 123.001 112.991H124.693V113.727H123.001C122.954 113.727 122.908 113.747 122.875 113.781C122.842 113.816 122.823 113.863 122.823 113.911C122.823 113.96 122.842 114.007 122.875 114.042C122.908 114.076 122.954 114.095 123.001 114.095H124.693V114.832H123.179C123.085 114.832 122.994 114.87 122.927 114.94C122.86 115.009 122.823 115.102 122.823 115.2C122.823 115.297 122.86 115.391 122.927 115.46C122.994 115.529 123.085 115.568 123.179 115.568H124.62C124.61 115.597 124.604 115.629 124.604 115.66V118.237C124.604 118.273 124.611 118.309 124.624 118.343C124.637 118.376 124.657 118.407 124.682 118.433C124.707 118.459 124.736 118.479 124.769 118.493C124.801 118.507 124.836 118.514 124.871 118.514C124.906 118.514 124.941 118.507 124.974 118.493C125.006 118.479 125.036 118.459 125.06 118.433C125.085 118.407 125.105 118.376 125.118 118.343C125.132 118.309 125.138 118.273 125.138 118.237V115.66C125.138 115.629 125.132 115.597 125.122 115.568H135.307C135.297 115.597 135.291 115.629 135.291 115.66V118.237C135.291 118.31 135.319 118.38 135.369 118.432C135.419 118.484 135.487 118.513 135.558 118.513C135.629 118.513 135.697 118.484 135.747 118.432C135.797 118.38 135.825 118.31 135.825 118.237V115.66C135.825 115.629 135.819 115.597 135.809 115.568H137.25C137.345 115.568 137.435 115.529 137.502 115.46C137.569 115.391 137.606 115.297 137.606 115.2C137.606 115.102 137.569 115.009 137.502 114.94C137.435 114.87 137.345 114.832 137.25 114.832H135.736V114.095H137.428C137.476 114.095 137.521 114.076 137.554 114.041C137.588 114.007 137.606 113.96 137.606 113.911C137.606 113.863 137.588 113.816 137.554 113.781C137.521 113.747 137.476 113.727 137.428 113.727H135.736V112.991L137.428 112.991ZM125.049 111.887H135.38V112.623H125.049V111.887ZM135.38 114.832H125.049V114.095H135.38V114.832ZM135.38 113.727H125.049V112.991H135.38V113.727Z" fill="#3F3D56"/>
<path d="M182.325 88.8374C182.372 88.8374 182.417 88.818 182.451 88.7835C182.484 88.749 182.503 88.7021 182.503 88.6533C182.503 88.6045 182.484 88.5577 182.451 88.5232C182.417 88.4886 182.372 88.4693 182.325 88.4693H180.633V87.733H182.325C182.372 87.733 182.417 87.7136 182.451 87.6791C182.484 87.6445 182.503 87.5977 182.503 87.5489C182.503 87.5001 182.484 87.4533 182.451 87.4188C182.417 87.3842 182.372 87.3648 182.325 87.3648H167.897C167.85 87.3648 167.805 87.3842 167.771 87.4188C167.738 87.4533 167.719 87.5001 167.719 87.5489C167.719 87.5977 167.738 87.6445 167.771 87.6791C167.805 87.7136 167.85 87.733 167.897 87.733H169.589V88.4693H167.897C167.85 88.4693 167.805 88.4886 167.771 88.5232C167.738 88.5577 167.719 88.6045 167.719 88.6533C167.719 88.7021 167.738 88.749 167.771 88.7835C167.805 88.818 167.85 88.8374 167.897 88.8374H169.589V89.5737H167.897C167.85 89.5737 167.805 89.593 167.771 89.6276C167.738 89.6621 167.719 89.7089 167.719 89.7577C167.719 89.8065 167.738 89.8534 167.771 89.8879C167.805 89.9224 167.85 89.9418 167.897 89.9418H169.589V90.6781H168.075C167.981 90.6783 167.891 90.7173 167.824 90.7863C167.758 90.8553 167.72 90.9487 167.72 91.0462C167.72 91.1436 167.758 91.2371 167.824 91.3061C167.891 91.3751 167.981 91.414 168.075 91.4143H169.517C169.506 91.4438 169.501 91.4749 169.5 91.5064V94.0833C169.5 94.1565 169.529 94.2268 169.579 94.2785C169.629 94.3303 169.697 94.3594 169.768 94.3594C169.838 94.3594 169.906 94.3303 169.956 94.2785C170.007 94.2268 170.035 94.1565 170.035 94.0833V91.5064C170.034 91.4749 170.029 91.4438 170.018 91.4143H180.204C180.193 91.4438 180.188 91.4749 180.187 91.5064V94.0833C180.187 94.1565 180.216 94.2268 180.266 94.2785C180.316 94.3303 180.384 94.3594 180.455 94.3594C180.525 94.3594 180.593 94.3303 180.643 94.2785C180.694 94.2268 180.722 94.1565 180.722 94.0833V91.5064C180.721 91.4749 180.716 91.4438 180.705 91.4143H182.147C182.194 91.4145 182.24 91.4051 182.283 91.3866C182.327 91.3682 182.366 91.3411 182.399 91.3069C182.432 91.2727 182.459 91.2321 182.477 91.1873C182.495 91.1426 182.504 91.0946 182.504 91.0462C182.504 90.9978 182.495 90.9498 182.477 90.9051C182.459 90.8603 182.432 90.8197 182.399 90.7855C182.366 90.7513 182.327 90.7242 182.283 90.7058C182.24 90.6873 182.194 90.6779 182.147 90.6781H180.633V89.9418H182.325C182.372 89.9418 182.417 89.9224 182.451 89.8879C182.484 89.8534 182.503 89.8065 182.503 89.7577C182.503 89.7089 182.484 89.6621 182.451 89.6276C182.417 89.593 182.372 89.5737 182.325 89.5737H180.633V88.8374H182.325ZM169.946 87.733H180.276V88.4693H169.946V87.733ZM180.276 90.6781H169.946V89.9418H180.276V90.6781ZM180.276 89.5737H169.946V88.8374H180.276V89.5737Z" fill="#3F3D56"/>
<path d="M114.708 135.119C114.708 130.399 111.002 119.197 106.431 119.197C101.86 119.197 98.1545 130.399 98.1545 135.119C98.1559 137.387 99.0285 139.561 100.58 141.164C102.132 142.767 104.237 143.667 106.431 143.667C108.625 143.667 110.73 142.767 112.282 141.164C113.834 139.561 114.706 137.387 114.708 135.119Z" fill="#F2F2F2"/>
<path d="M106.431 154.059C106.406 154.059 106.382 154.049 106.364 154.03C106.346 154.012 106.336 153.987 106.336 153.961V133.995C106.336 133.982 106.339 133.969 106.343 133.957C106.348 133.945 106.355 133.934 106.364 133.925C106.373 133.916 106.383 133.909 106.395 133.904C106.406 133.899 106.419 133.896 106.431 133.896C106.444 133.896 106.456 133.899 106.467 133.904C106.479 133.909 106.489 133.916 106.498 133.925C106.507 133.934 106.514 133.945 106.519 133.957C106.523 133.969 106.526 133.982 106.526 133.995V153.961C106.526 153.987 106.516 154.012 106.498 154.03C106.48 154.049 106.456 154.059 106.431 154.059Z" fill="#CCCCCC"/>
<path d="M106.431 137.725C106.418 137.725 106.404 137.722 106.392 137.716C106.38 137.711 106.369 137.702 106.36 137.692L101.6 132.019C101.583 131.999 101.575 131.974 101.577 131.948C101.579 131.922 101.591 131.898 101.61 131.881C101.628 131.864 101.653 131.856 101.678 131.857C101.703 131.859 101.726 131.871 101.743 131.891L106.503 137.563C106.515 137.578 106.522 137.595 106.525 137.613C106.528 137.632 106.525 137.651 106.517 137.668C106.51 137.685 106.498 137.7 106.482 137.71C106.467 137.72 106.449 137.725 106.431 137.725Z" fill="#CCCCCC"/>
<path d="M106.431 140.999C106.412 140.999 106.394 140.993 106.378 140.983C106.363 140.972 106.351 140.957 106.344 140.939C106.336 140.921 106.335 140.901 106.338 140.882C106.342 140.863 106.351 140.846 106.364 140.832L109.069 138.037C109.087 138.019 109.111 138.008 109.136 138.008C109.161 138.008 109.185 138.019 109.203 138.037C109.22 138.055 109.23 138.08 109.23 138.106C109.23 138.132 109.22 138.157 109.203 138.175L106.498 140.97C106.489 140.98 106.479 140.987 106.467 140.992C106.456 140.997 106.443 140.999 106.431 140.999Z" fill="#CCCCCC"/>
<path d="M35.7669 42.4859C35.7669 37.7654 32.0614 26.5638 27.4904 26.5638C22.9194 26.5638 19.2139 37.7654 19.2139 42.4859C19.2152 44.7534 20.0878 46.9276 21.6398 48.5305C23.1918 50.1334 25.2962 51.0338 27.4904 51.0338C29.6846 51.0338 31.789 50.1334 33.341 48.5305C34.893 46.9276 35.7656 44.7534 35.7669 42.4859Z" fill="#3F3D56"/>
<path d="M27.4904 61.4259C27.4653 61.4259 27.4412 61.4155 27.4235 61.3972C27.4057 61.3789 27.3958 61.354 27.3958 61.328V41.3616C27.3959 41.3357 27.4059 41.311 27.4237 41.2928C27.4414 41.2746 27.4654 41.2643 27.4904 41.2643C27.5154 41.2643 27.5394 41.2746 27.5571 41.2928C27.5749 41.311 27.5849 41.3357 27.585 41.3616V61.328C27.585 61.3409 27.5826 61.3536 27.5778 61.3655C27.5731 61.3773 27.5661 61.3881 27.5573 61.3972C27.5485 61.4063 27.5381 61.4135 27.5266 61.4184C27.5151 61.4233 27.5028 61.4259 27.4904 61.4259Z" fill="#CCCCCC"/>
<path d="M27.4905 45.092C27.477 45.092 27.4635 45.089 27.4512 45.0832C27.4388 45.0774 27.4279 45.0689 27.419 45.0583L22.659 39.3855C22.6426 39.3659 22.6344 39.3404 22.6362 39.3145C22.638 39.2887 22.6497 39.2647 22.6686 39.2477C22.6876 39.2307 22.7122 39.2222 22.7372 39.224C22.7622 39.2258 22.7855 39.2378 22.802 39.2573L27.562 44.9301C27.5739 44.9443 27.5816 44.9617 27.5842 44.9803C27.5867 44.9988 27.5841 45.0177 27.5766 45.0348C27.5691 45.0519 27.5569 45.0663 27.5417 45.0765C27.5264 45.0866 27.5087 45.092 27.4905 45.092V45.092Z" fill="#CCCCCC"/>
<path d="M27.4904 48.3659C27.4717 48.3659 27.4534 48.3601 27.4378 48.3494C27.4222 48.3386 27.4101 48.3234 27.403 48.3055C27.3958 48.2876 27.3939 48.268 27.3976 48.249C27.4012 48.23 27.4102 48.2126 27.4235 48.1989L30.1282 45.4038C30.137 45.3947 30.1474 45.3875 30.1589 45.3826C30.1704 45.3777 30.1827 45.3751 30.1951 45.3751C30.2075 45.3751 30.2198 45.3777 30.2313 45.3826C30.2428 45.3875 30.2532 45.3947 30.262 45.4038C30.2708 45.4129 30.2778 45.4236 30.2825 45.4355C30.2873 45.4474 30.2897 45.4601 30.2897 45.4729C30.2897 45.4858 30.2873 45.4985 30.2825 45.5104C30.2778 45.5222 30.2708 45.533 30.262 45.5421L27.5573 48.3372C27.5485 48.3463 27.5381 48.3535 27.5266 48.3585C27.5151 48.3634 27.5028 48.3659 27.4904 48.3659Z" fill="#CCCCCC"/>
<path d="M18.5261 61.2963C18.5261 60.3493 18.8902 59.441 19.5381 58.7714C20.1861 58.1018 21.065 57.7256 21.9814 57.7256C22.8978 57.7256 23.7766 58.1018 24.4246 58.7714C25.0726 59.441 25.4366 60.3493 25.4366 61.2963" fill="#F2F2F2"/>
<path d="M21.9813 61.2962C21.9566 61.2962 21.9328 61.2861 21.9153 61.268C21.8978 61.2499 21.8879 61.2253 21.8879 61.1997V59.3179C21.8879 59.2923 21.8978 59.2678 21.9153 59.2497C21.9328 59.2316 21.9566 59.2214 21.9813 59.2214C22.0061 59.2214 22.0298 59.2316 22.0474 59.2497C22.0649 59.2678 22.0747 59.2923 22.0747 59.3179V61.1997C22.0747 61.2253 22.0649 61.2499 22.0474 61.268C22.0298 61.2861 22.0061 61.2962 21.9813 61.2962Z" fill="#CCCCCC"/>
<path d="M21.9813 60.6496C21.959 60.6496 21.9374 60.6414 21.9205 60.6263L20.7999 59.6324C20.7906 59.6241 20.7829 59.614 20.7774 59.6027C20.7719 59.5914 20.7685 59.5791 20.7676 59.5665C20.7667 59.5538 20.7682 59.5411 20.772 59.5291C20.7758 59.5171 20.7819 59.5059 20.7899 59.4963C20.7978 59.4867 20.8076 59.4788 20.8185 59.4731C20.8295 59.4673 20.8414 59.4639 20.8536 59.4629C20.8659 59.462 20.8781 59.4635 20.8898 59.4674C20.9015 59.4714 20.9122 59.4777 20.9215 59.4859L22.0422 60.4799C22.0566 60.4927 22.067 60.5098 22.0717 60.5289C22.0765 60.548 22.0755 60.5681 22.0689 60.5866C22.0623 60.6051 22.0503 60.6211 22.0346 60.6323C22.019 60.6436 22.0004 60.6496 21.9813 60.6496H21.9813Z" fill="#CCCCCC"/>
<path d="M29.1719 61.2962C29.1719 60.3492 29.5359 59.441 30.1839 58.7714C30.8319 58.1017 31.7107 57.7256 32.6271 57.7256C33.5435 57.7256 34.4223 58.1017 35.0703 58.7714C35.7183 59.441 36.0823 60.3492 36.0823 61.2962" fill="#F2F2F2"/>
<path d="M32.6273 61.2962C32.6026 61.2962 32.5788 61.2861 32.5613 61.268C32.5438 61.2499 32.5339 61.2253 32.5339 61.1997V59.3179C32.5339 59.2923 32.5438 59.2678 32.5613 59.2497C32.5788 59.2316 32.6026 59.2214 32.6273 59.2214C32.6521 59.2214 32.6758 59.2316 32.6934 59.2497C32.7109 59.2678 32.7207 59.2923 32.7207 59.3179V61.1997C32.7207 61.2253 32.7109 61.2499 32.6933 61.268C32.6758 61.2861 32.6521 61.2962 32.6273 61.2962Z" fill="#CCCCCC"/>
<path d="M32.6272 60.6496C32.6049 60.6496 32.5833 60.6414 32.5664 60.6263L31.4458 59.6324C31.4271 59.6157 31.4156 59.592 31.4138 59.5666C31.412 59.5411 31.42 59.516 31.4361 59.4966C31.4522 59.4773 31.475 59.4653 31.4996 59.4633C31.5242 59.4613 31.5486 59.4694 31.5674 59.4859L32.688 60.4799C32.7025 60.4927 32.7128 60.5098 32.7176 60.5289C32.7224 60.548 32.7214 60.5681 32.7148 60.5866C32.7082 60.6051 32.6962 60.6211 32.6805 60.6323C32.6649 60.6436 32.6462 60.6496 32.6272 60.6496V60.6496Z" fill="#CCCCCC"/>
<path d="M209.649 134.854C209.649 130.133 205.944 118.932 201.373 118.932C196.802 118.932 193.096 130.133 193.096 134.854C193.098 137.121 193.97 139.295 195.522 140.898C197.074 142.501 199.179 143.402 201.373 143.402C203.567 143.402 205.671 142.501 207.223 140.898C208.775 139.295 209.648 137.121 209.649 134.854Z" fill="#F78065"/>
<path d="M201.373 153.794C201.348 153.794 201.324 153.783 201.306 153.765C201.288 153.747 201.278 153.722 201.278 153.696V133.729C201.278 133.717 201.28 133.704 201.285 133.692C201.29 133.68 201.297 133.669 201.306 133.66C201.314 133.651 201.325 133.643 201.336 133.639C201.348 133.634 201.36 133.631 201.373 133.631C201.385 133.631 201.398 133.634 201.409 133.639C201.421 133.643 201.431 133.651 201.44 133.66C201.449 133.669 201.456 133.68 201.46 133.692C201.465 133.704 201.467 133.717 201.467 133.729V153.696C201.467 153.722 201.457 153.747 201.44 153.765C201.422 153.783 201.398 153.794 201.373 153.794Z" fill="#CCCCCC"/>
<path d="M201.373 137.46C201.359 137.46 201.346 137.457 201.333 137.451C201.321 137.445 201.31 137.437 201.301 137.426L196.541 131.753C196.525 131.734 196.517 131.708 196.519 131.682C196.52 131.657 196.532 131.633 196.551 131.616C196.57 131.599 196.594 131.59 196.619 131.592C196.644 131.594 196.668 131.606 196.684 131.625L201.444 137.298C201.456 137.312 201.464 137.33 201.466 137.348C201.469 137.367 201.466 137.386 201.459 137.403C201.451 137.42 201.439 137.434 201.424 137.444C201.409 137.454 201.391 137.46 201.373 137.46V137.46Z" fill="#CCCCCC"/>
<path d="M201.373 140.734C201.354 140.734 201.336 140.728 201.32 140.717C201.305 140.706 201.292 140.691 201.285 140.673C201.278 140.655 201.276 140.636 201.28 140.617C201.284 140.598 201.293 140.58 201.306 140.567L204.011 137.772C204.019 137.763 204.03 137.755 204.041 137.75C204.053 137.745 204.065 137.743 204.077 137.743C204.09 137.743 204.102 137.745 204.114 137.75C204.125 137.755 204.136 137.763 204.144 137.772C204.153 137.781 204.16 137.791 204.165 137.803C204.17 137.815 204.172 137.828 204.172 137.841C204.172 137.854 204.17 137.866 204.165 137.878C204.16 137.89 204.153 137.901 204.144 137.91L201.44 140.705C201.431 140.714 201.42 140.721 201.409 140.726C201.397 140.731 201.385 140.734 201.373 140.734Z" fill="#CCCCCC"/>
<path d="M79.7302 136.35H78.1262C78.0066 136.35 77.8919 136.301 77.8073 136.214C77.7228 136.126 77.6752 136.008 77.675 135.884V133.708C77.6752 133.585 77.7228 133.466 77.8073 133.379C77.8919 133.292 78.0066 133.242 78.1262 133.242H79.7302C79.8498 133.242 79.9644 133.292 80.049 133.379C80.1336 133.466 80.1811 133.585 80.1813 133.708V135.884C80.1811 136.008 80.1336 136.126 80.049 136.214C79.9644 136.301 79.8498 136.35 79.7302 136.35Z" fill="#3F3D56"/>
<path d="M93.2637 154.066H85.0433C84.8174 154.065 84.6008 153.972 84.441 153.807C84.2813 153.642 84.1914 153.418 84.1912 153.185V136.713C84.1914 136.479 84.2813 136.256 84.441 136.09C84.6008 135.925 84.8174 135.833 85.0433 135.832H93.2637C93.4896 135.833 93.7062 135.925 93.8659 136.09C94.0257 136.256 94.1155 136.479 94.1158 136.713V153.185C94.1155 153.418 94.0257 153.642 93.8659 153.807C93.7062 153.972 93.4896 154.065 93.2637 154.066Z" fill="#3F3D56"/>
<path d="M88.3514 154.066H74.116C73.8901 154.065 73.6735 153.972 73.5138 153.807C73.354 153.642 73.2642 153.418 73.2639 153.185V136.713C73.2642 136.479 73.354 136.256 73.5138 136.09C73.6735 135.925 73.8901 135.833 74.116 135.832H88.3514C88.5773 135.833 88.7939 135.925 88.9536 136.09C89.1133 136.256 89.2032 136.479 89.2035 136.713V153.185C89.2032 153.418 89.1133 153.642 88.9536 153.807C88.7939 153.972 88.5773 154.065 88.3514 154.066Z" fill="#F78065"/>
<path d="M78.2262 136.35H76.6223C76.5027 136.35 76.388 136.301 76.3034 136.214C76.2189 136.126 76.1713 136.008 76.1711 135.884V133.708C76.1713 133.585 76.2189 133.466 76.3034 133.379C76.388 133.292 76.5027 133.242 76.6223 133.242H78.2262C78.3458 133.242 78.4605 133.292 78.5451 133.379C78.6297 133.466 78.6772 133.585 78.6774 133.708V135.884C78.6772 136.008 78.6297 136.126 78.5451 136.214C78.4605 136.301 78.3458 136.35 78.2262 136.35Z" fill="#F78065"/>
<path d="M80.3316 143.965H78.4269C78.3604 143.965 78.2967 143.937 78.2498 143.889C78.2028 143.84 78.1763 143.774 78.1763 143.706V140.701C78.1763 140.633 78.2028 140.567 78.2498 140.518C78.2967 140.47 78.3604 140.442 78.4269 140.442H80.3316C80.3981 140.442 80.4618 140.47 80.5087 140.518C80.5557 140.567 80.5822 140.633 80.5822 140.701V143.706C80.5822 143.774 80.5557 143.84 80.5087 143.889C80.4618 143.937 80.3981 143.965 80.3316 143.965Z" fill="white"/>
<path d="M84.0406 143.965H82.1359C82.0694 143.965 82.0057 143.937 81.9588 143.889C81.9118 143.84 81.8853 143.774 81.8853 143.706V140.701C81.8853 140.633 81.9118 140.567 81.9588 140.518C82.0057 140.47 82.0694 140.442 82.1359 140.442H84.0406C84.1071 140.442 84.1708 140.47 84.2177 140.518C84.2647 140.567 84.2911 140.633 84.2912 140.701V143.706C84.2911 143.774 84.2647 143.84 84.2177 143.889C84.1708 143.937 84.1071 143.965 84.0406 143.965Z" fill="white"/>
<path d="M80.3316 149.455H78.4269C78.3604 149.455 78.2967 149.428 78.2498 149.38C78.2028 149.331 78.1763 149.265 78.1763 149.196V146.192C78.1763 146.123 78.2028 146.058 78.2498 146.009C78.2967 145.961 78.3604 145.933 78.4269 145.933H80.3316C80.3981 145.933 80.4618 145.961 80.5087 146.009C80.5557 146.058 80.5822 146.123 80.5822 146.192V149.196C80.5822 149.265 80.5557 149.331 80.5087 149.38C80.4618 149.428 80.3981 149.455 80.3316 149.455Z" fill="white"/>
<path d="M84.0406 149.455H82.1359C82.0694 149.455 82.0057 149.428 81.9588 149.38C81.9118 149.331 81.8853 149.265 81.8853 149.196V146.192C81.8853 146.123 81.9118 146.058 81.9588 146.009C82.0057 145.961 82.0694 145.933 82.1359 145.933H84.0406C84.1071 145.933 84.1708 145.961 84.2177 146.009C84.2647 146.058 84.2911 146.123 84.2912 146.192V149.196C84.2911 149.265 84.2647 149.331 84.2177 149.38C84.1708 149.428 84.1071 149.455 84.0406 149.455Z" fill="white"/>
<path d="M22.6722 84.7164H20.7804C20.6393 84.7163 20.504 84.6583 20.4043 84.5552C20.3045 84.4521 20.2484 84.3123 20.2483 84.1666V79.6455C20.2484 79.4997 20.3045 79.36 20.4043 79.2569C20.504 79.1538 20.6393 79.0958 20.7804 79.0956H22.6722C22.8133 79.0958 22.9485 79.1538 23.0483 79.2569C23.148 79.36 23.2041 79.4997 23.2043 79.6455V84.1666C23.2041 84.3123 23.148 84.4521 23.0483 84.5552C22.9485 84.6583 22.8133 84.7163 22.6722 84.7164Z" fill="#3F3D56"/>
<path d="M30.1213 126.872H20.4257C20.1592 126.872 19.9038 126.762 19.7154 126.568C19.5269 126.373 19.421 126.109 19.4207 125.833V85.3884C19.421 85.1131 19.5269 84.8491 19.7154 84.6544C19.9038 84.4597 20.1592 84.3501 20.4257 84.3498H30.1213C30.3878 84.3501 30.6433 84.4597 30.8317 84.6544C31.0201 84.8491 31.1261 85.1131 31.1264 85.3884V125.833C31.1261 126.109 31.0201 126.373 30.8317 126.568C30.6433 126.762 30.3878 126.872 30.1213 126.872Z" fill="#3F3D56"/>
<path d="M24.3276 126.872H14.632C14.3655 126.872 14.1101 126.762 13.9216 126.568C13.7332 126.373 13.6273 126.109 13.627 125.833V85.3884C13.6273 85.1131 13.7332 84.8491 13.9216 84.6544C14.1101 84.4597 14.3655 84.3501 14.632 84.3498H24.3276C24.5941 84.3501 24.8495 84.4597 25.038 84.6544C25.2264 84.8491 25.3324 85.1131 25.3327 85.3884V125.833C25.3324 126.109 25.2264 126.373 25.038 126.568C24.8495 126.762 24.5941 126.872 24.3276 126.872Z" fill="#F78065"/>
<path d="M20.8988 84.7164H19.0069C18.8659 84.7163 18.7306 84.6583 18.6309 84.5552C18.5311 84.4521 18.475 84.3123 18.4749 84.1666V79.6455C18.475 79.4997 18.5311 79.36 18.6309 79.2569C18.7306 79.1538 18.8659 79.0958 19.0069 79.0956H20.8988C21.0398 79.0958 21.1751 79.1538 21.2748 79.2569C21.3746 79.36 21.4307 79.4997 21.4308 79.6455V84.1666C21.4307 84.3123 21.3746 84.4521 21.2748 84.5552C21.1751 84.6583 21.0398 84.7163 20.8988 84.7164Z" fill="#F78065"/>
<path d="M18.4157 93.5141H16.1691C16.0908 93.514 16.0156 93.4818 15.9602 93.4245C15.9048 93.3673 15.8736 93.2896 15.8735 93.2086V89.6651C15.8736 89.5841 15.9048 89.5065 15.9602 89.4492C16.0156 89.3919 16.0908 89.3597 16.1691 89.3596H18.4157C18.4941 89.3597 18.5692 89.3919 18.6246 89.4492C18.68 89.5065 18.7112 89.5841 18.7113 89.6651V93.2086C18.7112 93.2896 18.68 93.3673 18.6246 93.4245C18.5692 93.4818 18.4941 93.514 18.4157 93.5141Z" fill="white"/>
<path d="M22.7904 93.5141H20.5439C20.4655 93.514 20.3904 93.4818 20.335 93.4245C20.2796 93.3673 20.2484 93.2896 20.2483 93.2086V89.6651C20.2484 89.5841 20.2796 89.5065 20.335 89.4492C20.3904 89.3919 20.4655 89.3597 20.5439 89.3596H22.7904C22.8688 89.3597 22.9439 89.3919 22.9994 89.4492C23.0548 89.5065 23.086 89.5841 23.086 89.6651V93.2086C23.086 93.2896 23.0548 93.3673 22.9994 93.4245C22.9439 93.4818 22.8688 93.514 22.7904 93.5141Z" fill="white"/>
<path d="M18.4157 99.9902H16.1691C16.0908 99.9901 16.0156 99.9579 15.9602 99.9006C15.9048 99.8433 15.8736 99.7657 15.8735 99.6847V96.1412C15.8736 96.0602 15.9048 95.9826 15.9602 95.9253C16.0156 95.868 16.0908 95.8358 16.1691 95.8357H18.4157C18.4941 95.8358 18.5692 95.868 18.6246 95.9253C18.68 95.9826 18.7112 96.0602 18.7113 96.1412V99.6847C18.7112 99.7657 18.68 99.8433 18.6246 99.9006C18.5692 99.9579 18.4941 99.9901 18.4157 99.9902Z" fill="white"/>
<path d="M22.7904 99.9902H20.5439C20.4655 99.9901 20.3904 99.9579 20.335 99.9006C20.2796 99.8433 20.2484 99.7657 20.2483 99.6847V96.1412C20.2484 96.0602 20.2796 95.9826 20.335 95.9253C20.3904 95.868 20.4655 95.8358 20.5439 95.8357H22.7904C22.8688 95.8358 22.9439 95.868 22.9994 95.9253C23.0548 95.9826 23.086 96.0602 23.086 96.1412V99.6847C23.086 99.7657 23.0548 99.8433 22.9994 99.9006C22.9439 99.9579 22.8688 99.9901 22.7904 99.9902Z" fill="white"/>
<path d="M18.4157 106.466H16.1691C16.0908 106.466 16.0156 106.434 15.9602 106.377C15.9048 106.319 15.8736 106.242 15.8735 106.161V102.617C15.8736 102.536 15.9048 102.459 15.9602 102.401C16.0156 102.344 16.0908 102.312 16.1691 102.312H18.4157C18.4941 102.312 18.5692 102.344 18.6246 102.401C18.68 102.459 18.7112 102.536 18.7113 102.617V106.161C18.7112 106.242 18.68 106.319 18.6246 106.377C18.5692 106.434 18.4941 106.466 18.4157 106.466Z" fill="white"/>
<path d="M22.7904 106.466H20.5439C20.4655 106.466 20.3904 106.434 20.335 106.377C20.2796 106.319 20.2484 106.242 20.2483 106.161V102.617C20.2484 102.536 20.2796 102.459 20.335 102.401C20.3904 102.344 20.4655 102.312 20.5439 102.312H22.7904C22.8688 102.312 22.9439 102.344 22.9994 102.401C23.0548 102.459 23.086 102.536 23.086 102.617V106.161C23.086 106.242 23.0548 106.319 22.9994 106.377C22.9439 106.434 22.8688 106.466 22.7904 106.466Z" fill="white"/>
<path d="M18.4157 112.942H16.1691C16.0908 112.942 16.0156 112.91 15.9602 112.853C15.9048 112.796 15.8736 112.718 15.8735 112.637V109.093C15.8736 109.012 15.9048 108.935 15.9602 108.878C16.0156 108.82 16.0908 108.788 16.1691 108.788H18.4157C18.4941 108.788 18.5692 108.82 18.6246 108.878C18.68 108.935 18.7112 109.012 18.7113 109.093V112.637C18.7112 112.718 18.68 112.796 18.6246 112.853C18.5692 112.91 18.4941 112.942 18.4157 112.942Z" fill="white"/>
<path d="M22.7904 112.942H20.5439C20.4655 112.942 20.3904 112.91 20.335 112.853C20.2796 112.796 20.2484 112.718 20.2483 112.637V109.093C20.2484 109.012 20.2796 108.935 20.335 108.878C20.3904 108.82 20.4655 108.788 20.5439 108.788H22.7904C22.8688 108.788 22.9439 108.82 22.9994 108.878C23.0548 108.935 23.086 109.012 23.086 109.093V112.637C23.086 112.718 23.0548 112.796 22.9994 112.853C22.9439 112.91 22.8688 112.942 22.7904 112.942Z" fill="white"/>
<path d="M18.4157 119.418H16.1691C16.0908 119.418 16.0156 119.386 15.9602 119.329C15.9048 119.272 15.8736 119.194 15.8735 119.113V115.569C15.8736 115.489 15.9048 115.411 15.9602 115.354C16.0156 115.296 16.0908 115.264 16.1691 115.264H18.4157C18.4941 115.264 18.5692 115.296 18.6246 115.354C18.68 115.411 18.7112 115.489 18.7113 115.569V119.113C18.7112 119.194 18.68 119.272 18.6246 119.329C18.5692 119.386 18.4941 119.418 18.4157 119.418Z" fill="white"/>
<path d="M22.7904 119.418H20.5439C20.4655 119.418 20.3904 119.386 20.335 119.329C20.2796 119.272 20.2484 119.194 20.2483 119.113V115.569C20.2484 115.489 20.2796 115.411 20.335 115.354C20.3904 115.296 20.4655 115.264 20.5439 115.264H22.7904C22.8688 115.264 22.9439 115.296 22.9994 115.354C23.0548 115.411 23.086 115.489 23.086 115.569V119.113C23.086 119.194 23.0548 119.272 22.9994 119.329C22.9439 119.386 22.8688 119.418 22.7904 119.418Z" fill="white"/>
<path d="M173.143 136.406H171.539C171.419 136.406 171.304 136.357 171.22 136.269C171.135 136.182 171.088 136.063 171.088 135.94V133.764C171.088 133.64 171.135 133.522 171.22 133.435C171.304 133.347 171.419 133.298 171.539 133.298H173.143C173.262 133.298 173.377 133.347 173.462 133.435C173.546 133.522 173.594 133.64 173.594 133.764V135.94C173.594 136.063 173.546 136.182 173.462 136.269C173.377 136.357 173.262 136.406 173.143 136.406Z" fill="#3F3D56"/>
<path d="M186.676 154.121H178.456C178.23 154.121 178.013 154.028 177.854 153.863C177.694 153.698 177.604 153.474 177.604 153.241V136.768C177.604 136.535 177.694 136.311 177.854 136.146C178.013 135.981 178.23 135.888 178.456 135.888H186.676C186.902 135.888 187.119 135.981 187.279 136.146C187.438 136.311 187.528 136.535 187.528 136.768V153.241C187.528 153.474 187.438 153.698 187.279 153.863C187.119 154.028 186.902 154.121 186.676 154.121Z" fill="#3F3D56"/>
<path d="M181.764 154.121H167.529C167.303 154.121 167.086 154.028 166.927 153.863C166.767 153.698 166.677 153.474 166.677 153.241V136.768C166.677 136.535 166.767 136.311 166.927 136.146C167.086 135.981 167.303 135.888 167.529 135.888H181.764C181.99 135.888 182.207 135.981 182.366 136.146C182.526 136.311 182.616 136.535 182.616 136.768V153.241C182.616 153.474 182.526 153.698 182.366 153.863C182.207 154.028 181.99 154.121 181.764 154.121Z" fill="#F78065"/>
<path d="M171.639 136.406H170.035C169.916 136.406 169.801 136.357 169.716 136.269C169.632 136.182 169.584 136.063 169.584 135.94V133.764C169.584 133.64 169.632 133.522 169.716 133.435C169.801 133.347 169.916 133.298 170.035 133.298H171.639C171.759 133.298 171.873 133.347 171.958 133.435C172.043 133.522 172.09 133.64 172.09 133.764V135.94C172.09 136.063 172.043 136.182 171.958 136.269C171.873 136.357 171.759 136.406 171.639 136.406Z" fill="#F78065"/>
<path d="M173.744 144.02H171.839C171.773 144.02 171.709 143.993 171.662 143.944C171.615 143.896 171.589 143.83 171.589 143.761V140.757C171.589 140.688 171.615 140.623 171.662 140.574C171.709 140.525 171.773 140.498 171.839 140.498H173.744C173.811 140.498 173.874 140.525 173.921 140.574C173.968 140.623 173.995 140.688 173.995 140.757V143.761C173.995 143.83 173.968 143.896 173.921 143.944C173.874 143.993 173.811 144.02 173.744 144.02Z" fill="white"/>
<path d="M177.453 144.02H175.549C175.482 144.02 175.419 143.993 175.372 143.944C175.325 143.896 175.298 143.83 175.298 143.761V140.757C175.298 140.688 175.325 140.623 175.372 140.574C175.419 140.525 175.482 140.498 175.549 140.498H177.453C177.52 140.498 177.584 140.525 177.631 140.574C177.678 140.623 177.704 140.688 177.704 140.757V143.761C177.704 143.83 177.678 143.896 177.631 143.944C177.584 143.993 177.52 144.02 177.453 144.02Z" fill="white"/>
<path d="M173.744 149.511H171.839C171.773 149.511 171.709 149.484 171.662 149.435C171.615 149.387 171.589 149.321 171.589 149.252V146.248C171.589 146.179 171.615 146.113 171.662 146.065C171.709 146.016 171.773 145.989 171.839 145.989H173.744C173.811 145.989 173.874 146.016 173.921 146.065C173.968 146.113 173.995 146.179 173.995 146.248V149.252C173.995 149.321 173.968 149.387 173.921 149.435C173.874 149.484 173.811 149.511 173.744 149.511Z" fill="white"/>
<path d="M177.453 149.511H175.549C175.482 149.511 175.419 149.484 175.372 149.435C175.325 149.387 175.298 149.321 175.298 149.252V146.248C175.298 146.179 175.325 146.113 175.372 146.065C175.419 146.016 175.482 145.989 175.549 145.989H177.453C177.52 145.989 177.584 146.016 177.631 146.065C177.678 146.113 177.704 146.179 177.704 146.248V149.252C177.704 149.321 177.678 149.387 177.631 149.435C177.584 149.484 177.52 149.511 177.453 149.511Z" fill="white"/>
</g>
<defs>
<clipPath id="clip0">
<rect width="224" height="187" fill="white"/>
</clipPath>
</defs>
</svg>
